<svg width="135" height="124" viewBox="0 0 135 124" fill="none" xmlns="http://www.w3.org/2000/svg">
<path fill-rule="evenodd" clip-rule="evenodd" d="M29.3035 0.669145C29.7548 1.10376 30.0059 1.66444 30.1629 2.11503C30.5715 3.03281 31.2229 4.39498 31.884 5.58222C32.2261 6.19653 32.5488 6.7242 32.8241 7.10846C32.9621 7.30098 33.0662 7.42661 33.1345 7.49875C33.1386 7.50317 33.1433 7.50685 33.1486 7.50988C33.8714 7.92399 35.0226 8.56237 36.1747 9.15905C37.3956 9.79136 38.4816 10.3049 39.0753 10.5038L39.0842 10.5068C43.5361 10.6037 52.8823 11.7943 59 16.0002C60.8333 17.6669 63.5 19.0002 68 16.0002C70.4471 13.3899 79.0263 8.99117 94.0189 11.8074C94.3784 5.22606 99.8289 0.000189421 106.5 0.000189421C111.47 0.000189421 115.763 2.90061 117.777 7.10148C118.342 7.03458 118.917 7.00019 119.5 7.00019C121.019 7.00019 122.484 7.2338 123.86 7.66706C125.266 8.10996 125.63 9.82053 124.735 10.993C124.055 11.8852 122.852 12.1565 121.76 11.9004C121.034 11.7302 120.278 11.6402 119.5 11.6402C119.401 11.6402 119.303 11.6416 119.206 11.6445C119.127 11.6468 119.05 11.65 118.972 11.6541C118.972 11.6541 118.922 11.9701 117.667 12.2569C116.972 12.4158 116.322 12.6469 115.721 12.9453C115.403 13.1036 115 12.8556 115 12.5002C115 7.80576 111.194 4.00019 106.5 4.00019C101.806 4.00019 98 7.80576 98 12.5002C98 17.1946 101.806 21.0002 106.5 21.0002C107.462 21.0002 108.386 20.8405 109.248 20.5462C110.024 20.2813 111 20.9179 111 21.7377C111 23.0341 110.537 23.4339 110.227 23.7006C109.98 23.9138 109.832 24.042 110.097 24.475C111.358 28.4666 115.091 31.3602 119.5 31.3602C124.946 31.3602 129.36 26.9457 129.36 21.5002C129.36 20.2484 129.127 19.0512 128.701 17.9495C128.337 17.0059 128.37 15.9186 128.984 15.1143C129.966 13.8271 131.91 13.8236 132.605 15.286C133.499 17.1694 134 19.2763 134 21.5002C134 29.5083 127.508 36.0002 119.5 36.0002C119.375 36.0002 119.25 35.9986 119.126 35.9955C120.317 46.0116 118.756 51.6348 117.482 53.8149C117.873 54.6531 118.376 55.6695 118.884 56.5824C119.226 57.1967 119.549 57.7244 119.824 58.1086C119.962 58.3012 120.066 58.4268 120.135 58.4989C120.139 58.5034 120.143 58.507 120.149 58.5101C120.872 58.9242 122.023 59.5626 123.175 60.1592C124.396 60.7915 125.482 61.3051 126.075 61.504L126.143 61.5267C126.188 61.5418 126.232 61.56 126.274 61.5814L126.338 61.6134C126.573 61.7314 126.846 61.9021 127.103 62.1342C127.342 62.3509 127.696 62.7372 127.882 63.3097C128.097 63.976 128.024 64.7205 127.615 65.3631C127.592 65.3996 127.568 65.4352 127.544 65.4698C132.025 68.3053 135 73.3053 135 79.0002C135 83.5574 133.09 87.6723 130.039 90.5818C131.287 92.772 132 95.3077 132 98.0002C132 106.284 125.284 113 117 113C116.465 113 115.935 112.972 115.413 112.917C112.414 116.045 108.183 118 103.5 118C101.304 118 99.2084 117.571 97.2922 116.793C94.9431 119.98 88.6464 124.879 80.5 121C77.5 119.167 70.9 113.3 68.5 104.5C67 98.6668 63.7 87.9002 62.5 91.5002C59.5 100.5 55.5 112.413 51 117.5C47.1666 121.834 37.5 127.8 29.5 117C28.8725 116.247 27.659 114.644 26.7563 113.044C23.7959 114.753 19.7125 115.122 14.386 113.404C13.3348 113.065 12.7575 111.937 13.0966 110.886C13.4357 109.835 14.5628 109.258 15.614 109.597C21.3341 111.442 24.3594 110.237 26.0025 108.632C27.7687 106.907 28.4707 104.219 28.4991 102.132C28.3115 100.75 28.3009 99.628 28.5684 98.7836C28.7102 98.3361 29.0207 97.6836 29.7172 97.2773C29.9019 97.1696 30.089 97.0932 30.2746 97.0431C35.8848 92.6325 35.2918 85.8626 34.1651 82.8032C31.1307 76.8186 26.4677 75.8467 24.5497 75.9562C23.7885 76.3132 23.0917 76.5579 22.4527 76.6792C21.7296 76.8164 20.9247 76.8241 20.1738 76.4897C18.9275 75.9346 18.55 74.88 18.4875 74.0334L17.2611 71.9893L17.239 71.9484C16.6026 70.7664 16.0892 69.9553 15.6892 69.415C7.86997 74.0687 5.60891 79.4991 5.61242 84.2487C5.61612 89.2542 8.13802 93.9343 10.5154 96.6951L11.2364 97.5324L10.9114 98.5884C9.49808 103.182 10.9973 106.091 11.5184 106.699C12.2372 107.537 12.1401 108.8 11.3015 109.519C10.4628 110.238 9.20022 110.14 8.48137 109.302C7.09345 107.683 5.51002 103.745 6.79745 98.4664C4.21313 95.1524 1.61666 89.9865 1.61242 84.2517C1.60778 77.9621 4.72147 71.3852 13.3768 66.138C13.4855 65.9396 13.6256 65.7393 13.8068 65.5533C8.00773 57.308 6.83956 47.1723 7.00005 43.0002C6.87136 41.6276 6.86419 40.281 6.95991 38.9662C3.96269 36.4794 -0.190574 30.7881 1.02212 22.7035L1.02931 22.6555L1.03883 22.608C1.82965 18.6539 6.03388 10.9533 16.4131 10.5021C16.5517 10.4961 16.6876 10.5043 16.8194 10.5255C17.5066 10.2253 18.5981 9.70202 19.6913 9.0831C20.7279 8.49619 21.6379 7.89427 22.2223 7.37578C22.283 7.32185 22.3352 7.25959 22.3794 7.19148C22.7787 6.57761 23.3251 5.70298 23.8395 4.80914C24.4642 3.72372 24.9496 2.76598 25.1325 2.21469C25.2178 1.95768 25.3468 1.64143 25.5295 1.33545C25.6731 1.09475 26.0249 0.554609 26.6725 0.236758C27.0484 0.0522276 27.5429 -0.0638797 28.0934 0.0377449C28.6294 0.136705 29.0319 0.407568 29.3035 0.669145ZM27.3064 6.80427C27.4618 6.53431 27.8577 6.54131 28.0033 6.81663C28.1302 7.05636 28.2593 7.29474 28.3893 7.52825C28.7656 8.20398 29.1718 8.87876 29.5726 9.43814C29.7727 9.71743 29.9934 9.99893 30.2288 10.2478C30.4319 10.4625 30.739 10.7538 31.1386 10.9683C31.901 11.4055 33.1134 12.0782 34.3352 12.711C34.6229 12.86 34.6232 13.275 34.3359 13.4249C32.926 14.161 31.4081 15.0371 30.2638 15.8996L30.207 15.9424C30.1692 15.9709 30.1335 16.0021 30.1001 16.0357L30.0499 16.0861C29.6785 16.4593 29.1829 17.1409 28.6468 18.1354C28.2281 18.9122 27.0192 18.9398 26.5607 18.1858C26.3336 17.8124 26.0868 17.4365 25.8199 17.0642C24.8065 15.6502 23.4336 14.1915 21.6653 13.1691C21.435 13.036 21.4305 12.695 21.662 12.5639C22.9023 11.8617 24.317 10.9559 25.2795 9.98852L25.3493 9.91838C25.3957 9.87173 25.4374 9.82062 25.4738 9.76579L25.5285 9.68333C25.9707 9.01653 26.659 7.92922 27.3064 6.80427ZM29.5775 110.644C32.4746 115.979 40.2789 123.91 49 114C51.3333 110.5 56.4 101.4 58 93.0002C58.8333 89.6668 61.6 84.0002 66 88.0002C67.1666 89.5002 70.1 94.6002 72.5 103C74.5 109.667 80.8 122 90 118C90.8874 117.556 92.7985 116.404 94.0562 115.032C89.7901 112.049 87 107.101 87 101.5C87 93.2488 93.0568 86.412 100.967 85.1934C101.087 80.9811 102.411 77.1553 103.615 74.594C104.323 72.1203 105.611 69.8909 107.322 68.0634C106.83 67.7038 106.306 67.4076 105.75 67.1948C105.079 66.9675 104.014 66.548 103.268 66.0171C103.065 65.8727 102.809 65.6669 102.583 65.3937C102.372 65.1393 102.035 64.644 102.003 63.9475C101.965 63.1454 102.345 62.518 102.773 62.1297C103.112 61.822 103.494 61.6449 103.795 61.5362C104.481 61.2379 105.585 60.7095 106.691 60.0833C107.728 59.4964 108.638 58.8945 109.222 58.376C109.283 58.322 109.335 58.2598 109.38 58.1917C109.779 57.5778 110.325 56.7032 110.84 55.8093C111.464 54.7239 111.95 53.7662 112.133 53.2149C112.218 52.9579 112.347 52.6416 112.53 52.3356C112.673 52.0949 113.025 51.5548 113.673 51.2369C114.049 51.0524 114.543 50.9363 115.093 51.0379C115.113 51.0416 115.133 51.0455 115.152 51.0496L115.185 51.0567L115.221 51.0652C116.736 44.24 115.999 38.2601 115.253 35.3684C110.399 33.8837 106.627 29.9202 105.414 24.9536C100.14 24.4997 95.8018 20.7709 94.443 15.8105C90.4452 14.5323 81.5035 13.3078 73.5 17.5002C72.8333 17.6669 71.1 18.3002 69.5 19.5002C67.8333 21.3335 62.8 23.8002 56 19.0002C54.0322 17.6379 48.3801 15.0383 40.467 14.5725C40.1295 15.0039 39.6991 15.2799 39.3381 15.4614L39.2854 15.4879L39.2312 15.5112C37.8431 16.1091 34.8032 17.5705 32.9404 18.897C32.865 18.9507 32.7983 19.0147 32.7441 19.0898C32.7255 19.1157 32.7051 19.1446 32.683 19.1767C32.5499 19.3699 32.378 19.6453 32.1805 20.0099C31.7861 20.7383 31.3034 21.7974 30.8307 23.2227L30.8122 23.2783L30.7906 23.3327C30.6403 23.7103 30.4205 24.1537 30.1264 24.5642C29.861 24.9347 29.382 25.496 28.6437 25.798C27.7191 26.1762 26.7079 26.0178 25.9098 25.3774C25.2571 24.8536 24.8391 24.0873 24.5387 23.3327L24.5059 23.2502L24.4805 23.1652C24.2355 22.3442 23.6486 20.958 22.7124 19.5988C18.7604 21.818 15.004 27.2932 13.5001 30.0002C6.70011 43.6002 14.3334 60.3335 19.0001 67.0002L18.8672 66.9854C19.4242 67.7307 20.0431 68.7223 20.7386 70.0106L22.2792 72.5783C22.5023 72.4944 22.7759 72.3762 23.1056 72.2113L23.4044 72.0619L23.7357 72.0177C27.0313 71.5783 33.7845 73.097 37.7888 81.1058L37.8335 81.195L37.869 81.2882C39.3464 85.1665 40.4086 94.5116 32.3639 100.48C32.3708 100.774 32.4027 101.177 32.4799 101.717L32.5 101.858V102C32.5 104.462 31.8033 107.945 29.5775 110.644ZM18.7502 16.1946C18.9676 16.278 19.1804 16.3741 19.3883 16.4818C15.6841 19.4996 9.97401 25.9365 7.78808 34.1079C5.98238 31.8279 4.26624 28.1458 4.97046 23.3468C5.51717 20.7151 8.38894 15.264 15.7294 14.5579C15.915 14.751 16.1082 14.9031 16.2682 15.017C17.0139 15.5479 18.0786 15.9673 18.7502 16.1946ZM115.003 57.8168C114.858 57.5415 114.462 57.5345 114.307 57.8045C113.659 58.9294 112.971 60.0167 112.529 60.6835L112.474 60.766C112.438 60.8208 112.396 60.8719 112.349 60.9186L112.28 60.9887C111.317 61.9561 109.902 62.8619 108.662 63.5641C108.431 63.6952 108.435 64.0361 108.665 64.1693C110.434 65.1917 111.807 66.6504 112.82 68.0644C113.087 68.4367 113.334 68.8126 113.561 69.186C114.019 69.9399 115.228 69.9124 115.647 69.1356C116.183 68.1411 116.679 67.4595 117.05 67.0863L117.1 67.0358C117.134 67.0023 117.169 66.9711 117.207 66.9426L117.264 66.8998C118.408 66.0373 119.926 65.1612 121.336 64.4251C121.623 64.2751 121.623 63.8602 121.335 63.7111C120.114 63.0784 118.901 62.4056 118.139 61.9684C117.739 61.754 117.432 61.4626 117.229 61.248C116.993 60.9991 116.773 60.7176 116.573 60.4383C116.172 59.8789 115.766 59.2042 115.389 58.5284C115.259 58.2949 115.13 58.0565 115.003 57.8168ZM123.431 67.8447C122.216 68.4702 120.916 69.2022 119.941 69.8972C119.865 69.9509 119.798 70.0149 119.744 70.09L119.724 70.1187C119.711 70.1368 119.697 70.1562 119.683 70.1769C119.55 70.3701 119.378 70.6455 119.181 71.0101C118.786 71.7385 118.304 72.7976 117.831 74.2229L117.812 74.2785L117.791 74.3329C117.64 74.7105 117.421 75.1539 117.127 75.5643C116.861 75.9349 116.382 76.4962 115.644 76.7982C114.719 77.1764 113.708 77.018 112.91 76.3775C112.257 75.8538 111.839 75.0875 111.539 74.3329L111.506 74.2504L111.481 74.1654C111.263 73.4353 110.774 72.2583 110.011 71.0507C108.818 72.3981 107.924 74.0155 107.432 75.7996C107.396 75.9291 107.35 76.0551 107.292 76.1763C106.062 78.754 104.754 82.6936 104.985 86.7629C104.994 86.9205 104.988 87.079 104.957 87.2339C104.897 87.542 104.808 87.9008 104.695 88.2429C104.529 88.7411 104.025 89.0002 103.5 89.0002C96.5964 89.0002 91 94.5966 91 101.5C91 108.404 96.5964 114 103.5 114C107.268 114 110.647 112.333 112.939 109.696C113.51 109.038 114.398 108.726 115.258 108.863C115.826 108.953 116.407 109 117 109C123.075 109 128 104.075 128 98.0002C128 95.7944 127.351 93.7402 126.233 92.0183C125.459 90.8269 125.696 89.0601 126.777 88.139C129.361 85.9379 131 82.6604 131 79.0002C131 73.9378 127.865 69.6075 123.431 67.8447Z" fill="#D0B49F"/>
</svg>
