<svg width="133" height="127" viewBox="0 0 133 127" fill="none" xmlns="http://www.w3.org/2000/svg">
<path fill-rule="evenodd" clip-rule="evenodd" d="M18.9231 76.9155C20.4318 77.1813 21.5366 78.1996 22.2194 79.0485C22.9277 79.9291 23.3344 81.0612 23.5888 81.7696C23.6394 81.9104 23.684 82.0345 23.7237 82.1365C24.5401 84.2331 25.947 85.4407 27.0961 86.0615C27.4329 86.2434 27.7662 86.3844 28.19 86.5637C28.3417 86.6279 28.505 86.697 28.6842 86.7746C29.2982 87.0406 30.0568 87.3927 30.7641 87.9309C31.8623 88.7664 32.6961 89.7454 33.0554 90.9052C33.4351 92.1312 33.1973 93.2743 32.684 94.191C31.761 95.8391 29.9133 96.862 28.6715 97.3588L28.642 97.3706L28.6122 97.3814C26.5227 98.1412 25.4383 99.0433 24.9079 99.6905C24.6665 99.985 24.4801 100.399 24.2244 101.128C24.1961 101.209 24.1663 101.296 24.1348 101.388C23.9213 102.011 23.6273 102.868 23.1722 103.632C22.3581 105 21.3131 106.046 19.9723 106.484C18.59 106.937 17.2941 106.615 16.2804 106.063C14.3916 105.035 12.9536 102.943 12.1588 101.433L12.1002 101.322L12.056 101.204C11.4682 99.6366 9.94641 98.383 8.40573 97.5734C7.8093 97.26 6.90316 96.7833 6.07498 96.1961C5.3079 95.6522 4.27655 94.7904 3.79938 93.5851C3.53936 92.9283 3.40421 92.2243 3.48636 91.4988C3.56999 90.7602 3.86372 90.1346 4.25522 89.6258C4.9681 88.6992 6.04401 88.1239 6.83888 87.7349C7.2493 87.534 7.60166 87.3739 7.93331 87.2233C8.40239 87.0102 8.83002 86.8159 9.32184 86.5517C10.0746 86.1473 10.5799 85.7677 10.8893 85.3704C11.5521 84.5192 12.1152 83.423 12.5312 82.3629C12.5725 82.2577 12.6161 82.1429 12.6626 82.0203C12.9992 81.1336 13.4912 79.8377 14.3899 78.8098C15.6597 77.3574 17.2313 76.6174 18.9231 76.9155ZM18.0733 80.8831C17.9633 80.9302 17.7303 81.0663 17.4012 81.4427C17.0059 81.8948 16.784 82.4652 16.4071 83.4337C16.3591 83.5572 16.3085 83.6871 16.2548 83.8241C15.7511 85.1076 15.0189 86.5776 14.0454 87.8278C13.2333 88.8709 12.1588 89.5683 11.2147 90.0755C10.6506 90.3785 9.95497 90.698 9.37448 90.9645C9.07269 91.1031 8.80203 91.2274 8.59719 91.3277C7.92369 91.6573 7.61293 91.8762 7.4807 92.0043C7.48904 92.0328 7.50111 92.0687 7.51855 92.1127C7.51855 92.1127 7.52826 92.136 7.56032 92.1827C7.59401 92.2317 7.64606 92.2972 7.72293 92.3778C7.88051 92.543 8.10247 92.7302 8.38867 92.9332C8.9698 93.3452 9.65007 93.7087 10.2663 94.0325C12.1303 95.0119 14.6314 96.8274 15.7512 99.6693C16.4346 100.936 17.3843 102.11 18.1934 102.55C18.5392 102.739 18.6785 102.699 18.7282 102.683C18.8194 102.653 19.2031 102.48 19.7354 101.586C19.9633 101.203 20.112 100.775 20.3405 100.118C20.3749 100.019 20.4112 99.9149 20.4497 99.8049C20.7085 99.0669 21.0834 98.0467 21.8141 97.1551C22.882 95.852 24.6075 94.5867 27.2126 93.6341C27.64 93.4609 28.09 93.2251 28.4707 92.9529C28.8737 92.6647 29.0978 92.4083 29.194 92.2365C29.2536 92.13 29.2432 92.108 29.2367 92.0942C29.2358 92.0923 29.2345 92.0887 29.2345 92.0887C29.2094 92.0078 29.0597 91.6602 28.3421 91.1143C28.0387 90.8834 27.6522 90.6867 27.0944 90.4451C26.9911 90.4004 26.8765 90.352 26.7539 90.3003C26.2924 90.1056 25.7164 89.8626 25.1949 89.5808C23.3493 88.5838 21.2099 86.7047 19.9963 83.5879C19.8802 83.2897 19.7871 83.038 19.707 82.8215C19.4774 82.2011 19.3545 81.8688 19.1025 81.5555C18.6812 81.0317 18.3525 80.8765 18.2291 80.8548C18.2025 80.8501 18.164 80.8442 18.0733 80.8831ZM7.46234 91.919C7.46234 91.919 7.46248 91.9201 7.46252 91.9223Z" fill="#D0B49F"/>
<path fill-rule="evenodd" clip-rule="evenodd" d="M111.147 0.0886357C112.975 0.442231 114.311 1.77733 115.123 2.87995C115.799 3.79837 116.181 4.89733 116.441 5.64607C116.482 5.76398 116.52 5.8732 116.555 5.97167C117.673 9.06484 119.783 10.7415 121.39 11.5161C121.73 11.6803 122.051 11.8102 122.429 11.9638C122.619 12.0408 122.824 12.1238 123.053 12.22C123.675 12.4812 124.407 12.8146 125.104 13.3009C126.551 14.3094 127.609 15.4465 128.112 16.7576C128.647 18.1512 128.459 19.489 127.885 20.5995C127.345 21.6447 126.487 22.4567 125.663 23.055C124.822 23.6652 123.896 24.1404 123.061 24.4735L123.032 24.4852L123.002 24.4961C120.02 25.5784 118.594 26.9076 117.964 27.8128C117.711 28.1768 117.525 28.6489 117.285 29.3864C117.259 29.4663 117.232 29.5509 117.204 29.6395C117.001 30.2735 116.733 31.111 116.324 31.8772C115.364 33.6757 114.169 35.0042 112.662 35.6275C111.083 36.2806 109.548 36.0052 108.298 35.376C105.98 34.2093 104.18 31.6236 103.187 29.7392L103.128 29.6278L103.084 29.5098C102.278 27.3653 100.201 25.7198 98.2204 24.7028C98.0527 24.6167 97.8498 24.5175 97.6277 24.4089C97.1074 24.1544 96.4817 23.8485 95.9571 23.5393C95.1393 23.0573 94.2369 22.3961 93.5518 21.3951C93.4089 21.1862 93.2791 20.9741 93.1628 20.7589C92.7824 20.0554 92.5496 19.2882 92.5686 18.4762C92.5879 17.6531 92.8625 16.9378 93.2546 16.3446C93.9748 15.2554 95.1549 14.4957 96.1151 13.9428C96.6025 13.6622 97.1211 13.3881 97.6117 13.1288C97.6381 13.1149 97.6643 13.1011 97.6904 13.0872C98.217 12.8089 98.7174 12.5431 99.1957 12.2655C100.175 11.6974 100.898 11.1696 101.357 10.623C102.383 9.3998 103.225 7.72757 103.8 6.18361C103.825 6.11742 103.85 6.0491 103.876 5.97888C104.226 5.03125 104.704 3.73662 105.573 2.64368C107.156 0.652454 109.087 -0.309996 111.147 0.0886357ZM110.388 4.01582C110.254 3.98993 109.695 3.88628 108.704 5.13313C108.247 5.70795 107.971 6.4443 107.549 7.57879C106.885 9.36211 105.847 11.494 104.421 13.1938C103.506 14.2845 102.293 15.0928 101.203 15.7252C100.647 16.048 100.08 16.3486 99.5597 16.6236L99.505 16.6525C98.9938 16.9227 98.5338 17.1658 98.1111 17.4092C97.1688 17.9519 96.7451 18.318 96.5913 18.5507C96.5815 18.5655 96.5748 18.5768 96.5703 18.585C96.5777 18.6226 96.6022 18.7099 96.6814 18.8563C96.7289 18.9443 96.7855 19.0376 96.8529 19.136C97.0739 19.4591 97.4236 19.7606 97.9882 20.0933C98.3845 20.3269 98.7512 20.5053 99.1823 20.7149C99.4408 20.8406 99.7224 20.9776 100.047 21.1444C102.347 22.3251 105.431 24.5313 106.779 27.9749C107.671 29.6339 108.953 31.2276 110.096 31.8031C110.588 32.0508 110.889 32.0325 111.133 31.9314C111.449 31.8005 112.064 31.3635 112.795 29.9935C113.022 29.5684 113.174 29.1009 113.391 28.4287C113.42 28.3391 113.45 28.2457 113.482 28.1484C113.723 27.4073 114.057 26.4244 114.681 25.5276C115.878 23.8083 118.046 22.0457 121.605 20.7478C122.183 20.515 122.795 20.194 123.313 19.8179C123.856 19.424 124.182 19.0518 124.332 18.7625C124.448 18.5385 124.455 18.3914 124.378 18.1913C124.27 17.9087 123.909 17.3434 122.817 16.5821C122.474 16.3431 122.057 16.14 121.505 15.9083C121.372 15.8525 121.221 15.7913 121.059 15.7255C120.626 15.5494 120.112 15.3408 119.653 15.1193C117.276 13.9737 114.327 11.5749 112.793 7.33105C112.734 7.16829 112.681 7.01756 112.631 6.87732C112.355 6.10186 112.193 5.64715 111.902 5.25217C111.318 4.45952 110.754 4.08676 110.388 4.01582ZM96.5673 18.5631C96.5673 18.5631 96.5675 18.5644 96.5675 18.5668Z" fill="#D0B49F"/>
<path fill-rule="evenodd" clip-rule="evenodd" d="M52.9968 13.2749C38.4721 6.28588 25.4483 9.7559 20.8904 12.2554C19.9219 12.7865 18.7062 12.432 18.1751 11.4635C17.644 10.495 17.9985 9.27929 18.967 8.74818C24.5068 5.71022 38.8967 2.05123 54.7312 9.67047C55.2839 9.93646 55.9002 10.3101 56.387 10.6052C56.5881 10.7271 56.7672 10.8357 56.9105 10.9177C59.1246 12.1846 63.2259 13.2603 67.2662 10.3743L67.3564 10.3099L67.4531 10.2559C73.4494 6.90501 89.0685 1.93084 104.241 8.67418C105.25 9.12279 105.705 10.3047 105.256 11.3141C104.808 12.3234 103.626 12.778 102.616 12.3294C89.0658 6.3069 74.9019 10.7149 69.4954 13.6971C63.7861 17.7113 57.9524 16.1224 54.9239 14.3895C54.5792 14.1923 54.3069 14.0257 54.0646 13.8774C53.6891 13.6477 53.3857 13.462 52.9968 13.2749ZM16.6596 12.4997C17.213 13.4557 16.8867 14.6792 15.9308 15.2327C10.3882 18.4415 0.0713978 29.9536 5.56937 49.9638C5.71639 50.4989 5.92425 51.0377 6.17919 51.565C7.2492 53.7781 8.75784 56.8477 10.1822 59.6379C11.6306 62.4754 12.9261 64.8923 13.5928 65.8924L13.6619 65.996L13.7176 66.1074C14.4796 67.6313 15.6453 70.064 16.6749 72.4283C17.6636 74.6987 18.6533 77.1836 18.9015 78.673C19.0831 79.7625 18.3471 80.793 17.2575 80.9746C16.168 81.1562 15.1375 80.4201 14.9559 79.3306C14.8042 78.42 14.0438 76.4049 13.0075 74.0253C12.0356 71.7934 10.9312 69.4836 10.1926 68.0019C9.36206 66.7266 7.99635 64.1537 6.61952 61.4566C5.17803 58.6327 3.65602 55.5358 2.57801 53.3061C2.23106 52.5885 1.93164 51.8219 1.71231 51.0236C-4.32322 29.0569 7.00087 15.7806 13.9266 11.7709C14.8826 11.2175 16.1061 11.5438 16.6596 12.4997ZM118.148 24.6606C119.164 24.2292 120.338 24.7039 120.77 25.7207C123.274 31.6226 126.066 46.6334 117.639 60.5384L117.617 60.5753L117.593 60.6112C116.142 62.787 113.865 66.6051 111.808 70.9028C109.737 75.2294 107.965 79.8868 107.409 83.7846C106.738 88.4759 105.429 98.9679 105.429 104.002V104.073L105.424 104.144C105.245 106.643 104.164 112.725 101.067 117.149C100.434 118.054 99.1867 118.274 98.2818 117.64C97.3769 117.007 97.1568 115.76 97.7903 114.855C100.268 111.315 101.259 106.134 101.429 103.927C101.441 98.5355 102.789 87.8395 103.449 83.219C104.092 78.7168 106.071 73.6242 108.2 69.1758C110.331 64.7221 112.69 60.7585 114.24 58.4292C121.786 45.9441 119.248 32.3761 117.088 27.2829C116.656 26.2661 117.131 25.092 118.148 24.6606ZM60.9161 92.738C60.4537 93.3265 60.0057 94.1104 59.6273 94.938C59.4363 95.3555 59.2897 95.8416 59.1538 96.4168C57.1208 105.02 54.6056 111.214 52.2393 115.488C49.922 119.674 47.6478 122.196 45.9722 123.208C41.996 125.677 38.307 126.61 34.9381 126.271C31.5671 125.933 28.7606 124.345 26.5065 122.219C22.0727 118.038 19.5208 111.549 18.4781 106.943C18.2342 105.866 18.9098 104.795 19.9871 104.551C21.0644 104.307 22.1354 104.983 22.3793 106.06C23.3367 110.288 25.6347 115.899 29.2509 119.309C31.0219 120.979 33.0403 122.061 35.3381 122.292C37.6345 122.522 40.4538 121.929 43.8728 119.803L43.8862 119.795L43.8997 119.787C44.6771 119.32 46.5373 117.529 48.7399 113.551C50.9001 109.649 53.2971 103.808 55.261 95.4969C55.4232 94.8104 55.6414 94.0358 55.9896 93.2744C56.4505 92.2666 57.0514 91.1823 57.771 90.2666C58.4499 89.4027 59.4388 88.4241 60.7447 88.0627C61.445 87.8689 62.2073 87.8631 62.9684 88.1224C63.7107 88.3752 64.3364 88.8401 64.8577 89.4092C65.8636 90.5073 66.6652 92.1954 67.3421 94.4195L67.3679 94.5043L67.3861 94.591C68.7727 101.198 71.9345 110.269 76.7939 116.254C79.2097 119.229 81.9187 121.286 84.8864 122.047C87.7889 122.791 89.2426 122.373 93.3721 119.804C94.31 119.22 95.5433 119.507 96.1268 120.445C96.7104 121.383 96.4232 122.616 95.4853 123.2C90.6148 126.23 88.0477 126.987 83.893 125.922C79.8033 124.873 76.4186 122.137 73.6886 118.775C68.2797 112.113 64.9468 102.39 63.4901 95.5018C62.8829 93.5313 62.3057 92.5451 61.908 92.1109C61.8353 92.0315 61.7782 91.9813 61.7382 91.9503C61.6034 92.0231 61.3155 92.2298 60.9161 92.738Z" fill="#D0B49F"/>
<path d="M101.999 93.7758C102.634 94.9308 103.449 96.1715 104.397 97.2877C105.422 98.4942 106.699 99.6677 108.174 100.363C109.71 101.086 111.531 101.31 113.353 100.427C115.081 99.5883 116.49 97.9029 117.653 95.5313C118.037 94.748 118.287 93.9112 118.483 93.2571C118.505 93.1842 118.526 93.1135 118.546 93.0455C118.773 92.2957 118.952 91.7716 119.207 91.3398C119.939 90.0947 121.788 88.1695 125.975 86.6496L126.005 86.6388L126.034 86.6271C127.066 86.2151 128.211 85.6247 129.239 84.8684C130.25 84.1251 131.272 83.1299 131.881 81.8676C132.527 80.528 132.664 78.958 131.953 77.3509C131.282 75.8353 129.942 74.478 128.039 73.2331C127.35 72.7821 126.637 72.4615 126.006 72.2039C125.699 72.0783 125.444 71.9798 125.208 71.8883C124.892 71.7657 124.608 71.656 124.275 71.5112C122.089 70.5621 119.013 68.2799 117.512 63.8349C117.488 63.7647 117.464 63.6915 117.439 63.6154C117.172 62.8167 116.804 61.7138 116.141 60.7442C115.639 60.01 114.965 59.1958 114.127 58.5146C113.529 59.5419 112.858 60.759 112.146 62.129C112.381 62.3811 112.614 62.6732 112.84 63.0028C113.175 63.4927 113.374 64.0835 113.691 65.0221L113.722 65.1148C115.65 70.8234 119.662 73.8687 122.682 75.1802C123.052 75.3412 123.501 75.5162 123.896 75.6704C124.12 75.7581 124.327 75.8391 124.493 75.9068C125.039 76.1298 125.477 76.3372 125.849 76.5805C127.417 77.6061 128.059 78.4362 128.295 78.9697C128.491 79.4117 128.46 79.7526 128.278 80.1303C128.058 80.5854 127.592 81.1142 126.869 81.6462C126.172 82.159 125.349 82.591 124.579 82.9011C119.757 84.6578 117.067 87.0886 115.759 89.3113C115.234 90.2035 114.939 91.1524 114.717 91.8894L114.663 92.07C114.448 92.7833 114.292 93.3004 114.062 93.7702C113.092 95.7469 112.203 96.5387 111.607 96.8277C111.105 97.0713 110.577 97.0727 109.879 96.7441C109.121 96.3874 108.28 95.68 107.445 94.6975C106.653 93.7655 105.952 92.6859 105.412 91.678C104.798 90.1001 103.879 88.7322 102.817 87.562C102.409 89.6682 102.124 91.7538 101.999 93.7758Z" fill="#D0B49F"/>
</svg>
