<svg width="114" height="133" viewBox="0 0 114 133" fill="none" xmlns="http://www.w3.org/2000/svg">
<path fill-rule="evenodd" clip-rule="evenodd" d="M89.7527 77.0866L27.3623 92.4976L24.1537 74.1629L20.2136 74.8524L23.4702 93.4613C19.7297 94.4851 17.4684 98.3121 18.4037 102.099C19.2728 105.617 22.6012 107.881 26.1065 107.514L27.2016 113.536C24.5458 115.106 23.113 118.283 23.8908 121.431C24.8407 125.277 28.7283 127.624 32.574 126.675L36.9619 125.591L51.2573 131.773C54.0577 132.983 57.2142 133.082 60.0849 132.049L76.7959 126.033C80.2552 124.788 82.9528 122.025 84.1155 118.537L85.784 113.531L87.9878 112.987C91.8335 112.037 94.1809 108.149 93.231 104.304C92.5927 101.719 90.6277 99.8116 88.2404 99.1265L89.5521 91.9123L93.1926 91.0131C97.0383 90.0632 99.3858 86.1756 98.4359 82.3299C97.4859 78.4842 93.5983 76.1367 89.7527 77.0866ZM81.1894 114.666L43.3759 124.006L52.845 128.101C54.7119 128.908 56.8162 128.974 58.73 128.285L75.441 122.269C77.7473 121.439 79.5456 119.597 80.3207 117.272L81.1894 114.666ZM85.2953 92.9638L84.1699 99.1538L31.0383 112.278L30.0096 106.62L40.9717 103.912C41.971 103.665 42.5771 102.566 42.5901 101.537C42.6039 100.439 41.6533 99.6235 40.5871 99.8869L26.1277 103.458C24.4267 103.879 22.7072 102.84 22.287 101.139C21.8668 99.4383 22.9052 97.7188 24.6062 97.2986L90.7119 80.9699C92.4129 80.5498 94.1324 81.5881 94.5526 83.2891C94.9727 84.9901 93.9344 86.7096 92.2334 87.1298L49.2041 97.7584C48.3111 97.979 47.6837 98.7802 47.6837 99.7C47.6837 100.999 48.9024 101.953 50.1633 101.642L85.2953 92.9638ZM30.0932 116.631L85.507 102.944C87.208 102.524 88.9276 103.562 89.3477 105.263C89.7679 106.964 88.7296 108.683 87.0286 109.104L31.6148 122.791C29.9138 123.211 28.1942 122.173 27.7741 120.472C27.3539 118.771 28.3922 117.052 30.0932 116.631Z" fill="#D0B49F"/>
<path fill-rule="evenodd" clip-rule="evenodd" d="M78.3952 5.38022C80.316 4.7789 83.6972 4.08519 87.5368 4.00722C91.4517 3.92773 94.6797 4.49171 98.2893 6.29649C99.2772 6.79047 100.479 6.39002 100.973 5.40206C101.467 4.41411 101.066 3.21276 100.078 2.71878C95.6877 0.523562 91.7491 -0.0791297 87.4556 0.00804768C83.1558 0.0953533 79.3393 0.877957 77.0742 1.60279L76.9684 1.63664L76.867 1.682C62.2386 8.22628 47.663 6.32618 42.3387 4.61742C29.2486 -0.235988 19.2635 0.159162 14.7225 1.26969C13.7975 1.49592 12.9597 1.88453 12.2292 2.32106C3.24207 7.69121 0.196312 16.1772 0.00936881 24.3606C-0.175837 32.4679 2.41752 40.4474 4.89486 45.4021L4.91239 45.4371L4.93129 45.4715C8.26098 51.5255 10.0496 59.2956 10.8081 64.4069C11.177 66.893 12.0949 69.3591 13.725 71.4337C16.242 74.6372 20.0904 76.5076 24.1644 76.5076H89.2989C93.1914 76.5076 97.4084 74.9888 99.5938 71.1679C100.587 69.432 101.541 67.3261 102.124 64.9927C102.379 63.9723 102.617 62.9304 102.859 61.8677C104.026 56.7536 105.303 51.1586 109.153 45.1619C109.645 44.3952 110.157 43.5178 110.533 42.5263C112.038 38.5494 113.502 32.4977 113.407 26.0228C113.311 19.5408 111.645 13.4731 106.702 7.70604C105.983 6.86739 104.721 6.77027 103.882 7.48911C103.043 8.20796 102.946 9.47056 103.665 10.3092C107.815 15.1504 109.321 20.203 109.407 26.0817C109.494 31.9675 108.152 37.517 106.792 41.1104C106.561 41.7202 106.22 42.3267 105.787 43.0008C101.525 49.6388 100.085 55.9923 98.9209 61.1278C98.6908 62.1427 98.4716 63.11 98.2434 64.0226C97.7687 65.9216 96.9777 67.6853 96.1217 69.1819C94.8834 71.3468 92.3021 72.5076 89.2989 72.5076H24.1644C21.3179 72.5076 18.6289 71.2007 16.8703 68.9624C15.7438 67.5288 15.0508 65.7469 14.7648 63.8197C13.9787 58.5226 12.1053 50.2324 8.45559 43.5792C6.19185 39.0387 3.84216 31.7259 4.00833 24.4519C4.17317 17.2357 6.78623 10.2331 14.2809 5.75475C14.7613 5.46772 15.2276 5.26405 15.6728 5.15519C19.333 4.26006 28.5146 3.74976 40.9873 8.38249L41.0274 8.39737L41.0681 8.41052C47.0963 10.3608 62.6953 12.3639 78.3952 5.38022Z" fill="#D0B49F"/>
<path fill-rule="evenodd" clip-rule="evenodd" d="M92.886 72.635C93.9203 73.0228 94.4443 74.1756 94.0564 75.2099L92.5564 79.2099C92.1686 80.2441 91.0158 80.7681 89.9815 80.3803C88.9473 79.9924 88.4233 78.8396 88.8111 77.8054L90.3111 73.8054C90.699 72.7711 91.8518 72.2471 92.886 72.635Z" fill="#D0B49F"/>
</svg>
