<svg width="134" height="116" viewBox="0 0 134 116" fill="none" xmlns="http://www.w3.org/2000/svg">
<path fill-rule="evenodd" clip-rule="evenodd" d="M118.614 0.599918C120.235 0.884885 121.422 1.97665 122.156 2.88673C122.917 3.83078 123.354 5.04443 123.627 5.80389C123.681 5.95485 123.729 6.08787 123.772 6.19725C124.649 8.445 126.161 9.73966 127.396 10.4052C127.758 10.6002 128.116 10.7514 128.571 10.9436C128.734 11.0124 128.91 11.0865 129.102 11.1697C129.762 11.4548 130.577 11.8323 131.337 12.4093C132.517 13.305 133.413 14.3546 133.799 15.598C134.208 16.9124 133.952 18.1379 133.4 19.1206C132.409 20.8875 130.423 21.9842 129.089 22.5167L129.057 22.5293L129.025 22.541C126.78 23.3555 125.614 24.3227 125.044 25.0166C124.785 25.3323 124.585 25.7763 124.31 26.558C124.28 26.6446 124.248 26.7378 124.214 26.8365C123.984 27.5039 123.668 28.4231 123.179 29.2425C122.305 30.7082 121.182 31.8296 119.741 32.3C118.256 32.785 116.863 32.4404 115.774 31.8486C113.744 30.7459 112.199 28.5038 111.345 26.8849L111.282 26.7655L111.234 26.6392C110.603 24.9587 108.967 23.6147 107.312 22.7469C106.671 22.4109 105.697 21.8998 104.807 21.2702C103.983 20.6871 102.875 19.7632 102.362 18.471C102.083 17.7669 101.937 17.0122 102.026 16.2344C102.116 15.4425 102.431 14.7719 102.852 14.2263C103.618 13.2329 104.774 12.6162 105.628 12.1991C106.069 11.9838 106.448 11.8122 106.804 11.6507C107.308 11.4222 107.768 11.2139 108.296 10.9307C109.105 10.4972 109.648 10.0902 109.981 9.66423C110.693 8.75166 111.298 7.57646 111.745 6.44003C111.789 6.32724 111.836 6.20414 111.886 6.07264C112.248 5.12206 112.777 3.73281 113.742 2.63079C115.107 1.07373 116.796 0.280355 118.614 0.599918ZM117.7 4.8535C117.582 4.90399 117.332 5.04994 116.978 5.45341C116.553 5.93813 116.315 6.5497 115.91 7.58798C115.858 7.72035 115.804 7.85965 115.746 8.00651C115.205 9.38249 114.418 10.9584 113.372 12.2987C112.499 13.417 111.345 14.1648 110.33 14.7085C109.724 15.0333 108.977 15.3758 108.353 15.6616C108.029 15.8102 107.738 15.9434 107.518 16.0509C106.794 16.4043 106.46 16.639 106.318 16.7763C106.327 16.8068 106.34 16.8453 106.359 16.8926C106.359 16.8926 106.369 16.9175 106.403 16.9676C106.44 17.0201 106.496 17.0903 106.578 17.1767C106.748 17.3539 106.986 17.5545 107.294 17.7721C107.918 18.2139 108.649 18.6036 109.311 18.9507C111.314 20.0007 114.002 21.9471 115.205 24.9937C115.939 26.3521 116.96 27.6101 117.829 28.0825C118.201 28.2844 118.351 28.2418 118.404 28.2244C118.502 28.1924 118.914 28.0069 119.486 27.0485C119.731 26.6381 119.891 26.1794 120.137 25.4749C120.174 25.3688 120.212 25.2571 120.254 25.1391C120.532 24.3479 120.935 23.2543 121.72 22.2983C122.868 20.9014 124.722 19.5448 127.521 18.5236C127.98 18.3379 128.464 18.0851 128.873 17.7933C129.306 17.4843 129.547 17.2094 129.65 17.0253C129.714 16.9111 129.703 16.8874 129.696 16.8727C129.695 16.8706 129.694 16.8687 129.694 16.8668C129.667 16.78 129.506 16.4074 128.735 15.8221C128.409 15.5747 127.993 15.3638 127.394 15.1047C127.283 15.0568 127.16 15.0049 127.028 14.9495C126.532 14.7407 125.913 14.4802 125.353 14.1782C123.37 13.1093 121.071 11.0948 119.767 7.75325C119.642 7.43356 119.542 7.16377 119.456 6.93161C119.209 6.26654 119.077 5.91025 118.806 5.57444C118.354 5.01286 118 4.84649 117.868 4.82318C117.839 4.81815 117.798 4.81184 117.7 4.8535ZM106.298 16.6848C106.298 16.6848 106.298 16.686 106.298 16.6884Z" fill="#D0B49F"/>
<path fill-rule="evenodd" clip-rule="evenodd" d="M16.0944 28.5977C17.6649 28.8738 14.8149 29.9314 15.5257 30.8131C16.263 31.7276 16.6863 32.9034 16.9512 33.6391C17.0039 33.7853 17.0503 33.9142 17.0916 34.0201C17.9415 36.1977 15.0849 36.9734 16.2811 37.6182C16.6316 37.8071 15.2998 37.432 15.7409 37.6182C15.8989 37.6848 12.6231 37.8372 16.2555 37.8372C16.8946 38.1134 15.358 39.8819 16.0944 40.4408C17.2375 41.3085 18.1055 42.3253 18.4795 43.5299C18.8748 44.8032 18.6273 45.9904 18.0928 46.9424C17.1321 48.654 21.5349 48.3137 20.2422 48.8296L20.2115 48.8419L20.1804 48.8531C18.0054 49.6422 22.8765 51.5792 22.3244 52.2514C22.0731 52.5572 21.879 52.9873 21.6129 53.7446C21.5834 53.8285 21.5524 53.9188 21.5195 54.0144C21.2973 54.661 20.9913 55.5515 20.5175 56.3452C19.6701 57.7652 18.5822 58.8515 17.1865 59.3072C15.7476 59.777 14.3985 59.4432 13.3433 58.8699C11.3771 57.8016 9.88016 55.6296 9.05284 54.0613L8.99181 53.9457L8.9458 53.8232C8.33391 52.1953 6.74973 50.8933 5.14591 50.0526C4.52504 49.7271 3.58177 49.232 2.71965 48.6221C1.92113 48.0572 0.847514 47.1622 0.350792 45.9104C0.0801116 45.2282 -0.060572 44.4971 0.0249359 43.7436C0.111995 42.9765 0.417765 42.3268 0.825304 41.7983C1.5674 40.836 2.6874 40.2385 3.51485 39.8345C3.94209 39.6259 4.3089 39.4596 4.65414 39.3031C5.14243 39.0818 5.58759 38.8801 6.09957 38.6057C6.88315 38.1857 7.4092 37.7915 7.73127 37.3788C8.42119 36.4947 9.00744 35.3563 9.44045 34.2553C9.48343 34.1461 9.52881 34.0268 9.57728 33.8994C9.92767 32.9786 10.4398 31.6327 11.3753 30.5651C12.6972 29.0567 14.3332 28.2882 16.0944 28.5977ZM15.2097 32.7184C15.0952 32.7673 14.8526 32.9087 14.5101 33.2996C14.0985 33.7691 13.8675 34.3616 13.4752 35.3674C13.4252 35.4957 13.3726 35.6306 13.3166 35.7729C12.7923 37.1059 12.0301 38.6325 11.0167 39.931C10.1713 41.0143 9.0528 41.7387 8.06999 42.2654C7.48283 42.5801 6.75864 42.9119 6.15437 43.1887C5.8402 43.3327 5.55845 43.4618 5.34522 43.5659C4.64411 43.9082 4.32063 44.1356 4.18297 44.2687C4.19165 44.2982 4.20422 44.3355 4.22238 44.3812C4.22238 44.3812 4.23248 44.4054 4.26585 44.4539C4.30093 44.5048 4.35511 44.5728 4.43513 44.6565C4.59917 44.8281 4.83022 45.0225 5.12816 45.2333C5.7331 45.6613 6.44124 46.0388 7.08272 46.375C9.02309 47.3922 11.6267 49.2778 12.7925 52.2292C13.5038 53.5452 14.4924 54.7639 15.3347 55.2215C15.6947 55.417 15.8397 55.3758 15.8914 55.3589C15.9863 55.3279 16.3857 55.1482 16.9398 54.2198C17.1771 53.8222 17.332 53.3779 17.5698 52.6954C17.6056 52.5926 17.6433 52.4844 17.6835 52.3701C17.9529 51.6036 18.3431 50.5441 19.1038 49.6181C20.2155 48.2648 16.0117 45.9506 18.7235 44.9613C19.1684 44.7814 17.6369 44.5365 18.0331 44.2538C18.4527 43.9545 17.6859 43.6882 17.7861 43.5098C15.0928 43.5659 17.8374 43.3763 17.8306 43.3619C17.8297 43.36 17.8282 43.3563 17.8282 43.3563C17.8021 43.2722 17.6463 42.9113 17.8993 42.3442C17.5835 42.1045 18.1812 41.9002 17.6005 41.6493C17.493 41.6028 18.3737 41.5526 18.246 41.4989C17.7656 41.2966 17.166 41.0443 16.6231 40.7516C14.7019 39.7162 15.7734 39.01 14.5101 35.7729C14.3892 35.4632 16.9937 34.9565 16.9103 34.7316C16.6714 34.0873 16.5434 33.7421 16.2811 33.4168C15.8425 32.8728 15.5003 32.7116 15.3719 32.689C15.3442 32.6841 15.3041 32.678 15.2097 32.7184ZM4.16386 44.18C4.16386 44.18 4.16401 44.1811 4.16405 44.1834Z" fill="#D0B49F"/>
<path fill-rule="evenodd" clip-rule="evenodd" d="M22.2356 11.9574C23.1041 12.6398 23.255 13.8972 22.5726 14.7657C19.2443 19.0017 13.9365 31.0935 20.272 44.5987C22.0352 47.6244 24.6786 52.3405 26.9432 56.7696C28.0841 59.001 29.141 61.1829 29.9426 63.0506C30.7089 64.8361 31.3505 66.574 31.4878 67.8092L27.5122 68.2509C27.4495 67.6861 27.0537 66.4615 26.2668 64.6282C25.5153 62.8772 24.5033 60.7841 23.3817 58.5905C21.1405 54.2071 18.5094 49.5155 16.7724 46.5378L16.7286 46.4627L16.6914 46.3841C9.48358 31.1204 15.4286 17.3837 19.4273 12.2944C20.1097 11.4259 21.367 11.275 22.2356 11.9574Z" fill="#D0B49F"/>
<path fill-rule="evenodd" clip-rule="evenodd" d="M58.0029 7.26639C45.55 0.917268 33.9297 5.16771 28.3836 8.87664C27.4655 9.49067 26.2072 9.37859 25.5001 8.53003C24.793 7.68148 24.903 6.41852 25.8122 5.79132C32.1269 1.43533 45.5257 -3.63753 59.9137 3.7509L60.0027 3.79657L60.0866 3.85089C61.269 4.61598 63.4758 5.5964 66.0328 5.8797C68.5527 6.15887 71.3107 5.75543 73.8174 3.91722L73.969 3.80605L74.1386 3.72507C78.0607 1.85318 84.5927 -0.0127779 91.6584 0.370459C98.781 0.756781 106.518 3.44187 112.544 10.7586L109.456 13.3014C104.282 7.01817 97.6859 4.70326 91.4418 4.36459C85.2384 4.02812 79.4546 5.65522 76.0218 7.25934C72.5722 9.72019 68.814 10.2123 65.5924 9.85537C62.4153 9.50338 59.6642 8.3206 58.0029 7.26639ZM111.786 50.9857C116.753 40.975 116.946 32.8699 116.527 30.3588L120.473 29.7012C121.052 33.1776 120.649 42.2041 115.289 52.9244L115.212 53.0781L115.11 53.2164C114.008 54.7125 112.296 57.3624 110.818 60.3533C109.322 63.3824 108.169 66.558 107.996 69.1631L104.005 68.897C104.231 65.502 105.662 61.761 107.232 58.5818C108.777 55.4538 110.557 52.673 111.786 50.9857Z" fill="#D0B49F"/>
<path fill-rule="evenodd" clip-rule="evenodd" d="M116.979 90.5846C118.246 90.8073 119.173 91.6602 119.747 92.3712C120.341 93.1087 120.683 94.0569 120.896 94.6502C120.939 94.7682 120.976 94.8721 121.009 94.9575C121.695 96.7136 122.876 97.7251 123.841 98.245C124.123 98.3974 124.403 98.5155 124.759 98.6656C124.886 98.7194 125.023 98.7773 125.174 98.8423C125.689 99.065 126.326 99.36 126.92 99.8107C127.842 100.51 128.542 101.331 128.843 102.302C129.162 103.329 128.963 104.286 128.532 105.054C127.757 106.434 126.206 107.291 125.163 107.707L125.138 107.717L125.113 107.726C123.359 108.362 122.449 109.118 122.004 109.66C121.801 109.907 121.644 110.254 121.43 110.864C121.406 110.932 121.381 111.005 121.354 111.082C121.175 111.603 120.928 112.322 120.546 112.962C119.863 114.107 118.986 114.983 117.86 115.35C116.7 115.729 115.612 115.46 114.761 114.998C113.175 114.136 111.968 112.385 111.301 111.12L111.251 111.026L111.214 110.928C110.721 109.615 109.443 108.565 108.15 107.887C107.649 107.624 106.889 107.225 106.193 106.733C105.549 106.278 104.683 105.556 104.283 104.546C104.065 103.996 103.951 103.407 104.02 102.799C104.09 102.18 104.337 101.656 104.666 101.23C105.264 100.454 106.167 99.9723 106.835 99.6465C107.179 99.4783 107.475 99.3442 107.753 99.218C108.147 99.0395 108.506 98.8768 108.919 98.6555C109.551 98.3169 109.975 97.9989 110.235 97.6661C110.791 96.9532 111.264 96.0351 111.613 95.1472C111.648 95.0591 111.685 94.9629 111.724 94.8602C112.006 94.1176 112.419 93.0322 113.174 92.1712C114.24 90.9548 115.559 90.335 116.979 90.5846ZM116.266 93.9077C116.174 93.9472 115.978 94.0612 115.702 94.3764C115.37 94.7551 115.183 95.2329 114.867 96.0441C114.827 96.1475 114.784 96.2563 114.739 96.371C114.316 97.446 113.702 98.6772 112.884 99.7243C112.203 100.598 111.301 101.182 110.508 101.607C110.035 101.861 109.451 102.128 108.963 102.352C108.71 102.468 108.483 102.572 108.311 102.656C107.745 102.932 107.484 103.115 107.373 103.222C107.38 103.246 107.391 103.276 107.405 103.313C107.405 103.313 107.413 103.333 107.44 103.372C107.468 103.413 107.512 103.468 107.577 103.535C107.709 103.674 107.895 103.83 108.136 104C108.623 104.346 109.195 104.65 109.712 104.921C111.277 105.741 113.376 107.262 114.316 109.642C114.89 110.704 115.687 111.686 116.367 112.055C116.657 112.213 116.774 112.18 116.816 112.166C116.892 112.141 117.214 111.996 117.661 111.248C117.853 110.927 117.977 110.569 118.169 110.018C118.198 109.935 118.229 109.848 118.261 109.756C118.478 109.138 118.793 108.283 119.406 107.537C120.303 106.445 121.751 105.385 123.938 104.588C124.297 104.442 124.675 104.245 124.994 104.017C125.333 103.776 125.521 103.561 125.602 103.417C125.652 103.328 125.643 103.309 125.638 103.298C125.637 103.296 125.636 103.295 125.636 103.293C125.615 103.225 125.489 102.934 124.887 102.477C124.632 102.284 124.307 102.119 123.839 101.917C123.752 101.879 123.656 101.839 123.553 101.795C123.166 101.632 122.682 101.429 122.244 101.193C120.695 100.358 118.899 98.7837 117.88 96.1732C117.783 95.9234 117.705 95.7126 117.637 95.5313C117.445 95.0117 117.341 94.7333 117.13 94.471C116.776 94.0322 116.5 93.9023 116.397 93.8841C116.374 93.8801 116.342 93.8752 116.266 93.9077ZM107.358 103.151C107.358 103.151 107.358 103.152 107.358 103.154Z" fill="#D0B49F"/>
<path fill-rule="evenodd" clip-rule="evenodd" d="M26 77.53C22.134 77.53 19 80.664 19 84.53V97.53C19 101.396 22.134 104.53 26 104.53H106.071L105.5 102.53L108.643 100.53H92.5V81.53H109C110.657 81.53 112 82.8732 112 84.53V97.405L115 92.53L116 93.1015V84.53C116 80.664 112.866 77.53 109 77.53H26ZM70 81.53H88.5V100.53H70V81.53ZM66 81.53V100.53H46.5V81.53H66ZM42.5 81.53V100.53H26C24.3431 100.53 23 99.1869 23 97.53V84.53C23 82.8732 24.3431 81.53 26 81.53H42.5Z" fill="#D0B49F"/>
<path d="M109 70.53H26C18.8203 70.53 13 76.3503 13 83.53V97.53C13 104.71 18.8203 110.53 26 110.53H84C85.1046 110.53 86 111.425 86 112.53C86 113.635 85.1046 114.53 84 114.53H26C16.6112 114.53 9 106.919 9 97.53V83.53C9 74.1412 16.6112 66.53 26 66.53H109C118.389 66.53 126 74.1412 126 83.53V97.53C126 98.8481 125.85 100.131 125.566 101.363L123 99.53L121.907 99.0928C121.968 98.5805 122 98.0589 122 97.53V83.53C122 76.3503 116.18 70.53 109 70.53Z" fill="#D0B49F"/>
<path d="M96 112.53C96 113.635 96.8954 114.53 98 114.53H109C111.244 114.53 113.386 114.095 115.348 113.305L112.437 110.071C111.342 110.37 110.19 110.53 109 110.53H98C96.8954 110.53 96 111.425 96 112.53Z" fill="#D0B49F"/>
<path d="M121.564 108.982L121.503 109.049L121.458 109.097L121.5 109.03L121.564 108.982Z" fill="#D0B49F"/>
</svg>
