<svg width="134" height="108" viewBox="0 0 134 108" fill="none" xmlns="http://www.w3.org/2000/svg">
<path fill-rule="evenodd" clip-rule="evenodd" d="M117.252 6.77085C91.7886 3.58792 68.5102 3.78881 59.611 4.28321C58.5081 4.34448 57.5644 3.5001 57.5031 2.39723C57.4419 1.29436 58.2862 0.35064 59.3891 0.289369C68.4801 -0.215684 91.9587 -0.414909 117.665 2.79134C120 2.89096 123.491 3.42598 126.533 4.76926C129.561 6.1063 132.721 8.53238 132.996 12.6533L133 12.7197V25.8389L132.997 25.8914C132.901 27.7222 132.341 30.5556 130.993 33.3842C129.782 35.9259 127.881 38.5695 125 40.4286V46.6197C125 48.9208 122.761 50.7863 120 50.7863H107C105.862 50.7863 104.812 50.4693 103.972 49.9353C103.193 50.4714 102.243 50.7863 101.217 50.7863H88.7826C87.7051 50.7863 86.7108 50.4386 85.9111 49.8519C85.0912 50.4401 84.0861 50.7863 83 50.7863H70C68.8744 50.7863 67.8357 50.4144 67 49.7867C66.1643 50.4144 65.1256 50.7863 64 50.7863H51C49.914 50.7863 48.9088 50.4401 48.0889 49.8519C47.2892 50.4386 46.2949 50.7863 45.2174 50.7863H32.7826C31.7572 50.7863 30.8071 50.4714 30.0285 49.9353C29.188 50.4693 28.1384 50.7863 27 50.7863H14C11.2386 50.7863 9 48.9208 9 46.6197V40.7343C7.48511 39.7865 6.16185 38.2483 5.10066 36.7584C3.85756 35.0131 2.78622 33.0615 2.01124 31.4599C1.28739 29.9639 1.00002 28.3572 1.00002 26.8084V17.3286C0.802724 12.5344 2.46259 9.12202 4.87783 6.86097C7.23277 4.65637 10.1591 3.67805 12.3727 3.38239C12.484 3.36752 12.5913 3.35344 12.6953 3.33979C13.1636 3.27832 13.5656 3.22556 13.9738 3.14837C22.1113 1.60931 42.1936 0.606783 51.9345 0.287411C53.0385 0.251215 53.9627 1.11682 53.9989 2.2208C54.0351 3.32477 53.1695 4.24907 52.0656 4.28526C42.2142 4.60826 22.4837 5.6098 14.7171 7.07869C14.187 7.17895 13.651 7.24904 13.1789 7.31076C13.0839 7.32318 12.9914 7.33527 12.9022 7.34718C11.2889 7.56267 9.21121 8.28349 7.61151 9.78106C6.07961 11.2152 4.83702 13.4938 4.99813 17.1995L5.00002 17.2429V26.8084C5.00002 27.872 5.1979 28.8621 5.61188 29.7176C6.32386 31.1891 7.28515 32.9305 8.35873 34.4378C8.57479 34.7412 8.78893 35.0257 9 35.2905V34.953C9 34.6843 9.03105 34.419 9.09109 34.1605C9.80689 29.437 14.6393 25.7863 20.5 25.7863C23.8913 25.7863 26.9384 27.0088 29.0427 28.9541C30.8009 25.3086 34.5971 22.7863 39 22.7863C42.4056 22.7863 45.4481 24.2953 47.4654 26.666C49.4345 23.1566 53.1891 20.7863 57.5 20.7863C61.448 20.7863 64.9293 22.7743 67 25.8046C69.0707 22.7743 72.5521 20.7863 76.5 20.7863C80.8109 20.7863 84.5655 23.1566 86.5346 26.666C88.5519 24.2953 91.5944 22.7863 95 22.7863C99.4029 22.7863 103.199 25.3086 104.957 28.9541C107.062 27.0088 110.109 25.7863 113.5 25.7863C119.361 25.7863 124.193 29.437 124.909 34.1605C124.969 34.419 125 34.6843 125 34.953V35.2365C125.996 34.1612 126.778 32.9301 127.382 31.6634C128.479 29.3623 128.922 27.074 129 25.7309V12.8596C128.849 11.0086 127.429 9.5377 124.917 8.42833C122.431 7.33023 119.421 6.86167 117.423 6.78481L117.337 6.78151L117.252 6.77085ZM121 39.3252C121 39.3004 121 39.2756 121 39.2509V34.953C121 34.8714 120.986 34.7926 120.96 34.7181C120.569 31.5725 117.378 29.1196 113.5 29.1196C109.622 29.1196 106.431 31.5725 106.04 34.7181C106.014 34.7926 106 34.8714 106 34.953V46.6197C106 47.0799 106.448 47.453 107 47.453H120C120.552 47.453 121 47.0799 121 46.6197V39.3252ZM102.174 33.053V33.703C102.142 33.8543 102.114 34.0068 102.091 34.1605C102.031 34.419 102 34.6843 102 34.953V46.6197L102 46.6562C101.827 46.8962 101.541 47.053 101.217 47.053H88.7826C88.4184 47.053 88.1018 46.8544 87.9402 46.5621C87.9796 46.3093 88 46.0502 88 45.7863V31.9808C88.7186 28.8551 91.5798 26.5196 95 26.5196C98.7095 26.5196 101.761 29.2669 102.135 32.79C102.16 32.8734 102.174 32.9617 102.174 33.053ZM83 46.7863C83.5523 46.7863 84 46.3386 84 45.7863V31.7863C84 31.6885 83.986 31.5939 83.9597 31.5045C83.5688 27.7298 80.3781 24.7863 76.5 24.7863C72.6219 24.7863 69.4312 27.7298 69.0403 31.5045C69.0141 31.5939 69 31.6885 69 31.7863V45.7863C69 46.3386 69.4477 46.7863 70 46.7863H83ZM64.9597 31.5045C64.9859 31.5939 65 31.6885 65 31.7863V45.7863C65 46.3386 64.5523 46.7863 64 46.7863H51C50.4477 46.7863 50 46.3386 50 45.7863V31.7863C50 31.6885 50.0141 31.5939 50.0403 31.5045C50.4312 27.7298 53.6219 24.7863 57.5 24.7863C61.3781 24.7863 64.5688 27.7298 64.9597 31.5045ZM31.9998 46.6562L32 46.6197V34.953C32 34.6843 31.9689 34.419 31.9089 34.1605C31.8856 34.0068 31.858 33.8543 31.8261 33.703V33.053C31.8261 32.9617 31.8395 32.8734 31.8646 32.79C32.2386 29.2669 35.2905 26.5196 39 26.5196C42.4202 26.5196 45.2814 28.8551 46 31.9808V45.7863C46 46.0502 46.0204 46.3093 46.0598 46.5621C45.8983 46.8544 45.5816 47.053 45.2174 47.053H32.7826C32.459 47.053 32.1729 46.8962 31.9998 46.6562ZM28 34.953C28 34.8714 27.9859 34.7926 27.9597 34.7181C27.5688 31.5725 24.3781 29.1196 20.5 29.1196C16.6219 29.1196 13.4312 31.5725 13.0403 34.7181C13.0141 34.7926 13 34.8714 13 34.953V46.6197C13 47.0799 13.4477 47.453 14 47.453H27C27.5523 47.453 28 47.0799 28 46.6197V34.953Z" fill="#D0B49F"/>
<path fill-rule="evenodd" clip-rule="evenodd" d="M20.5 81.7863C23.8913 81.7863 26.9384 80.5639 29.0427 78.6185C30.8009 82.2641 34.5971 84.7863 39 84.7863C42.4056 84.7863 45.4481 83.2773 47.4654 80.9067C49.4345 84.416 53.1891 86.7863 57.5 86.7863C61.448 86.7863 64.9293 84.7983 67 81.7681C69.0707 84.7983 72.5521 86.7863 76.5 86.7863C80.8109 86.7863 84.5655 84.416 86.5346 80.9067C88.5519 83.2773 91.5944 84.7863 95 84.7863C99.4029 84.7863 103.199 82.2641 104.957 78.6185C107.062 80.5639 110.109 81.7863 113.5 81.7863C119.361 81.7863 124.193 78.1356 124.909 73.4122C124.969 73.1536 125 72.8884 125 72.6197V71.1481C126.726 72.925 129.203 77.0132 129.5 84.8237V92.2762C129.5 93.7662 129.247 94.9546 128.64 95.7934C126.608 98.6008 123.182 99.9343 118.882 100.621C116.757 100.96 114.524 101.127 112.274 101.272C112.093 101.283 111.912 101.295 111.73 101.307L111.432 101.325C109.49 101.448 108.532 101.572 106.744 101.803C105.649 101.944 104.875 102.947 105.016 104.042C105.158 105.138 106.16 105.911 107.256 105.77C108.905 105.557 109.718 105.442 111.677 105.318C111.959 105.3 112.244 105.282 112.532 105.263C114.784 105.118 117.183 104.943 119.513 104.571C124.121 103.835 128.892 102.266 131.88 98.139C133.214 96.2958 133.5 94.0972 133.5 92.2762V84.7493L133.499 84.7123C133.082 73.4722 128.433 67.8988 125.338 66.4704C125.227 66.4192 125.114 66.3791 125 66.3495V60.953C125 58.6518 122.761 56.7863 120 56.7863H107C105.862 56.7863 104.812 57.1034 103.972 57.6373C103.193 57.1012 102.243 56.7863 101.217 56.7863H88.7826C87.7051 56.7863 86.7108 57.134 85.9111 57.7207C85.0912 57.1326 84.0861 56.7863 83 56.7863H70C68.8744 56.7863 67.8357 57.1583 67 57.786C66.1643 57.1583 65.1256 56.7863 64 56.7863H51C49.914 56.7863 48.9088 57.1326 48.0889 57.7207C47.2892 57.134 46.2949 56.7863 45.2174 56.7863H32.7826C31.7572 56.7863 30.8071 57.1012 30.0285 57.6373C29.188 57.1034 28.1384 56.7863 27 56.7863H14C11.2386 56.7863 9 58.6518 9 60.953V67.286C8.66296 67.2856 8.32126 67.3706 8.00765 67.5498C4.85662 69.3504 0.183537 75.5342 0.999933 86.8593V93.7863C0.999944 95.3868 1.49464 97.7199 2.98677 99.756C4.52427 101.854 7.03781 103.515 10.7712 103.776C25.1398 106.131 61.7749 109.79 98.7161 105.775C99.8142 105.655 100.608 104.668 100.488 103.57C100.369 102.472 99.382 101.679 98.2839 101.798C61.7078 105.774 25.3621 102.125 11.325 99.8129L11.2255 99.7965L11.1247 99.7902C8.51552 99.6271 7.06144 98.5491 6.21316 97.3916C5.30527 96.1527 4.99994 94.6858 4.99993 93.7863V86.7123L4.99447 86.6386C4.36834 78.1858 7.16045 73.6273 9 71.8132V72.6197C9 72.8884 9.03105 73.1536 9.09109 73.4122C9.80689 78.1356 14.6393 81.7863 20.5 81.7863ZM32 60.953L31.9998 60.9165C32.1729 60.6765 32.459 60.5196 32.7826 60.5196H45.2174C45.5816 60.5196 45.8983 60.7183 46.0598 61.0105C46.0204 61.2634 46 61.5225 46 61.7863V75.5919C45.2814 78.7176 42.4202 81.053 39 81.053C35.2905 81.053 32.2386 78.3058 31.8646 74.7827C31.8395 74.6992 31.8261 74.611 31.8261 74.5196V73.8697C31.858 73.7184 31.8856 73.5658 31.9089 73.4122C31.9689 73.1536 32 72.8884 32 72.6197V60.953ZM28 60.953V72.6197C28 72.7012 27.9859 72.78 27.9597 72.8545C27.5688 76.0001 24.3781 78.453 20.5 78.453C16.6219 78.453 13.4312 76.0001 13.0403 72.8545C13.0141 72.78 13 72.7012 13 72.6197V60.953C13 60.4927 13.4477 60.1197 14 60.1197H27C27.5523 60.1197 28 60.4927 28 60.953ZM102 60.9165C101.827 60.6765 101.541 60.5196 101.217 60.5196H88.7826C88.4184 60.5196 88.1018 60.7183 87.9402 61.0106C87.9796 61.2634 88 61.5225 88 61.7863V75.5919C88.7186 78.7176 91.5798 81.053 95 81.053C98.7095 81.053 101.761 78.3058 102.135 74.7827C102.16 74.6992 102.174 74.611 102.174 74.5196V73.8697C102.142 73.7184 102.114 73.5658 102.091 73.4122C102.031 73.1536 102 72.8884 102 72.6197V60.953L102 60.9165ZM106 72.6197C106 72.7012 106.014 72.78 106.04 72.8545C106.431 76.0001 109.622 78.453 113.5 78.453C117.378 78.453 120.569 76.0001 120.96 72.8545C120.986 72.78 121 72.7012 121 72.6197V60.953C121 60.4927 120.552 60.1197 120 60.1197H107C106.448 60.1197 106 60.4927 106 60.953V72.6197ZM84 61.7863V75.7863C84 75.8842 83.986 75.9787 83.9597 76.0681C83.5688 79.8429 80.3781 82.7863 76.5 82.7863C72.6219 82.7863 69.4312 79.8429 69.0403 76.0681C69.0141 75.9787 69 75.8842 69 75.7863V74.7863C69 73.6817 68.1046 72.7863 67 72.7863C65.8954 72.7863 65 73.6817 65 74.7863V75.7863C65 75.8842 64.9859 75.9787 64.9597 76.0681C64.5688 79.8429 61.3781 82.7863 57.5 82.7863C53.6219 82.7863 50.4312 79.8429 50.0403 76.0681C50.0141 75.9787 50 75.8842 50 75.7863V61.7863C50 61.234 50.4477 60.7863 51 60.7863H64C64.5523 60.7863 65 61.234 65 61.7863V64.7863C65 65.8909 65.8954 66.7863 67 66.7863C68.1046 66.7863 69 65.8909 69 64.7863V61.7863C69 61.234 69.4477 60.7863 70 60.7863H83C83.5523 60.7863 84 61.234 84 61.7863Z" fill="#D0B49F"/>
</svg>
