<svg width="134" height="133" viewBox="0 0 134 133" fill="none" xmlns="http://www.w3.org/2000/svg">
<path fill-rule="evenodd" clip-rule="evenodd" d="M82.5831 8.81026C76.4455 12.5814 73.9767 20.058 76.2884 26.5853L69.4784 30.5911L69.4709 30.5956C67.3307 31.8797 62.2954 33.2401 58.448 29.4301C56.8997 27.7262 54.284 25.8306 51.0447 25.2319C47.6552 24.6054 43.8116 25.4471 40.159 28.9146C37.9192 31.041 36.604 33.9224 36.3016 36.925C36.0677 39.2471 36.0386 42.1906 36.5156 45.4529C35.5974 45.6006 34.6717 45.6093 33.7719 45.5203C31.7905 45.3243 30.0653 44.6633 29.0996 44.1342C28.7611 43.8791 28.4157 43.6414 28.0649 43.4201C23.2014 40.3509 17.3052 40.4369 12.3114 42.486C7.32274 44.5329 2.97833 48.6357 1.21044 53.9889C-1.33926 61.7094 1.27163 69.342 3.80661 73.3749L3.85045 73.4447L3.89988 73.5106C4.9191 74.8695 6.2501 77.713 7.54326 80.9417C7.59324 81.0665 7.64302 81.1915 7.69257 81.3166C3.23359 82.7205 0 86.888 0 91.8106V121.811C0 127.886 4.92487 132.811 11 132.811H122C128.075 132.811 133 127.886 133 121.811V91.8106C133 86.8125 129.666 82.5929 125.101 81.2539C125.895 79.8027 126.814 78.3628 127.774 76.8566C128.033 76.4511 128.295 76.0402 128.558 75.6236C130.6 72.3914 132.701 68.809 133.329 64.6003C133.544 63.1662 133.631 61.6236 133.55 59.9802C133.212 53.1436 129.778 45.7694 123.081 42.7258C116.045 39.528 108.557 41.8959 104.822 44.0852L104.772 44.1145L104.724 44.1465C102.81 45.4227 100.641 45.7218 98.6054 45.5203C96.624 45.3243 94.8988 44.6633 93.9331 44.1342C93.5945 43.8791 93.2492 43.6414 92.8984 43.4201C91.4109 42.4814 89.8268 41.8378 88.2015 41.4553C87.0358 41.181 86 42.1306 86 43.328C86 44.3521 86.7694 45.1969 87.7557 45.4725C88.8086 45.7667 89.8199 46.2072 90.7637 46.8028C91.0543 46.9862 91.3381 47.1836 91.6141 47.3959L91.7225 47.4792L91.8412 47.5471C93.233 48.3424 95.552 49.2378 98.2116 49.5009C100.876 49.7646 104.019 49.403 106.891 47.5092C110.031 45.6857 116.055 43.9263 121.426 46.3674C126.326 48.5942 129.264 54.2916 129.555 60.1774C129.623 61.5554 129.549 62.834 129.373 64.0093C128.9 67.1801 127.341 70.0336 125.408 73.12C122.084 68.6427 118.407 66.6805 114.927 66.2637C113.287 66.0672 111.685 66.4552 110.248 67.0169C108.806 67.5802 107.375 68.3812 106.051 69.1633C105.651 69.3995 105.264 69.6321 104.886 69.8591C103.965 70.4125 103.097 70.9339 102.228 71.3982C101.009 72.0496 99.9836 72.4778 99.1148 72.6411C97.0438 73.0304 95.7149 72.2577 93.8376 70.8263C93.666 70.6954 93.4889 70.5577 93.3058 70.4153L93.3028 70.413L93.2995 70.4104L93.2986 70.4098C91.5508 69.0508 89.2538 67.2648 85.9494 66.88C85.5776 66.8367 85.2265 66.814 84.9067 66.811C81.5058 66.5887 78.6451 67.9219 76.4671 69.5635C75.1029 70.5918 73.96 71.7741 73.055 72.8647C72.6952 72.2278 72.3372 71.6582 71.9867 71.1824C69.8684 67.7747 67.7973 61.435 69.8422 55.2432C70.9799 51.7983 73.5761 48.9099 76.8073 47.0869C77.5191 46.6853 78 45.9528 78 45.1356C78 43.6849 76.5599 42.6808 75.2799 43.3634C71.6802 45.2832 68.6362 48.2796 66.8675 51.9523C65.1689 48.0082 62.308 44.5711 58.2478 42.7258C51.4284 39.6265 44.1843 41.7552 40.3444 43.8825C40.0586 41.384 40.0994 39.1335 40.2815 37.3258C40.4951 35.2051 41.4184 33.2345 42.913 31.8156C45.6791 29.1896 48.2425 28.7817 50.3177 29.1653C52.5162 29.5716 54.4067 30.9189 55.5134 32.1485L55.5485 32.1876L55.5857 32.2248C61.3287 37.9678 68.6617 35.7419 71.5209 34.0304L78.1172 30.1502C82.6215 36.6448 91.4713 38.5595 98.2883 34.3709L110.217 27.0419C114.922 24.1506 116.393 17.9922 113.502 13.2866L108.267 4.76636C105.375 0.0607691 99.217 -1.41005 94.5114 1.48119L82.5831 8.81026ZM37.3165 49.3743C37.5423 50.2292 37.806 51.0964 38.1122 51.9713C38.4771 53.0139 39.6181 53.5632 40.6606 53.1983C41.7032 52.8334 42.2526 51.6925 41.8877 50.6499C41.5836 49.7811 41.3268 48.9205 41.1116 48.0739C41.4294 47.903 41.745 47.7152 42.0574 47.5092C45.1973 45.6857 51.2217 43.9263 56.5927 46.3674C61.4923 48.5941 64.4307 54.2916 64.7212 60.1774C64.7892 61.5553 64.7154 62.834 64.5398 64.0092C64.0661 67.1801 62.5073 70.0336 60.5741 73.1199C57.2507 68.6426 53.5735 66.6805 50.0934 66.2636C48.4535 66.0672 46.8519 66.4551 45.4141 67.0169C43.9725 67.5802 42.5417 68.3812 41.2179 69.1633C40.8183 69.3993 40.4316 69.6316 40.0539 69.8584L40.0527 69.8591C39.1313 70.4126 38.2635 70.9338 37.3946 71.3982C36.1758 72.0495 35.1501 72.4778 34.2813 72.6411C32.2104 73.0304 30.8814 72.2576 29.0041 70.8262C28.8306 70.6939 28.6514 70.5546 28.466 70.4105L28.4651 70.4098C26.7173 69.0507 24.4204 67.2648 21.1159 66.88C20.7441 66.8367 20.393 66.814 20.0732 66.811C16.6723 66.5887 13.8116 67.9219 11.6336 69.5635C10.2694 70.5917 9.12648 71.7741 8.22148 72.8647C7.86169 72.2278 7.50371 71.6582 7.15323 71.1824C5.03494 67.7747 2.96385 61.435 5.00868 55.2432C6.35716 51.16 9.75466 47.8587 13.8298 46.1866C17.8999 44.5166 22.3896 44.5685 25.9302 46.8028C26.2208 46.9862 26.5046 47.1835 26.7806 47.3958L26.889 47.4792L27.0077 47.5471C28.3995 48.3424 30.7186 49.2378 33.3781 49.5009C34.6131 49.6231 35.9507 49.611 37.3165 49.3743ZM96.6055 4.88928L93.8021 6.61173L96.6385 10.6637C97.2719 11.5686 97.0519 12.8157 96.147 13.4491C95.2421 14.0825 93.995 13.8624 93.3616 12.9575L90.3879 8.70949L84.6772 12.2183C79.501 15.3987 77.8831 22.173 81.0635 27.3492C84.2438 32.5253 91.0181 34.1432 96.1943 30.9628L102.447 27.121L96.8494 18.94C96.2257 18.0284 96.4591 16.7837 97.3707 16.16C98.2823 15.5363 99.5269 15.7696 100.151 16.6813L105.859 25.0245L108.123 23.6338C110.946 21.899 111.828 18.204 110.094 15.3806L104.859 6.86038C103.124 4.03703 99.4288 3.15453 96.6055 4.88928ZM11.2565 79.4545C10.9139 78.5991 10.5547 77.7333 10.1858 76.8888C11.0392 75.6558 12.3582 74.0263 14.0412 72.7578C15.7401 71.4772 17.6887 70.6506 19.8574 70.8055L19.9286 70.8106H19.9999C20.1657 70.8106 20.3865 70.8221 20.6533 70.8531C22.7986 71.1029 24.233 72.2054 26.0672 73.6149L26.0706 73.6176L26.0742 73.6204C26.2389 73.7469 26.4069 73.876 26.5788 74.0071C28.6024 75.55 31.1585 77.2982 35.0203 76.5722C36.4937 76.2953 37.9481 75.6378 39.2799 74.926C40.2431 74.4113 41.2452 73.8094 42.2003 73.2357L42.2015 73.235C42.5599 73.0198 42.9116 72.8085 43.2523 72.6072C44.5525 71.8392 45.7488 71.1806 46.8698 70.7426C47.9946 70.3032 48.8912 70.1482 49.6177 70.2352C52.0426 70.5257 55.1695 72.0209 58.2506 76.788C56.881 79.0043 55.5555 81.3816 54.7053 83.9533C53.539 87.4815 52.5277 91.7038 52.0238 96.478C51.659 97.9972 50.8417 99.7297 49.7064 100.655C49.0467 101.193 48.5441 101.239 48.0771 101.131C47.4892 100.996 46.7289 100.55 45.8437 99.6668C44.0774 97.9054 42.4402 95.0414 41.3323 92.5089L41.3207 92.483C40.7001 91.1175 39.5983 89.6877 38.2109 88.5713C37.0965 87.6745 35.8572 87.1324 34.5122 87.1659C33.1826 87.1989 32.0741 87.7871 31.1958 88.5014C29.5707 89.8229 28.1836 92.0576 26.9849 93.9888L26.9183 94.0961C25.605 96.2115 24.407 98.1413 23.0656 99.4647C21.7896 100.724 20.693 101.14 19.4731 100.867C19.0823 100.757 16.8365 99.6088 16.4941 95.1572C16.4094 94.0559 15.4479 93.2318 14.3466 93.3165C13.2453 93.4012 12.4212 94.3627 12.5059 95.464C12.9598 101.365 16.2026 104.173 18.5149 104.751L18.5503 104.759C21.6264 105.469 24.0607 104.102 25.875 102.312C27.561 100.649 28.9751 98.3686 30.1797 96.4266L30.3249 96.1925C31.6652 94.0336 32.704 92.4306 33.7195 91.6048C34.1746 91.2347 34.4552 91.1685 34.6117 91.1646C34.7528 91.1611 35.0965 91.1994 35.7033 91.6877C36.6325 92.4353 37.3273 93.37 37.674 94.1267C38.862 96.839 40.738 100.224 43.0192 102.499C44.1597 103.637 45.5592 104.656 47.1793 105.029C48.9205 105.43 50.6745 105.027 52.2342 103.755C54.3797 102.006 55.5047 99.2142 55.9502 97.2538L55.977 97.1363L55.9894 97.0164C56.4563 92.5026 57.4086 88.5197 58.5032 85.2088C58.5473 85.0755 58.5928 84.9428 58.6398 84.8106H73.8485C74.4932 86.5888 75.0436 88.2173 75.4285 89.4202C75.4846 89.5953 75.5625 89.7574 75.6583 89.9043L77.2463 95.8594C77.2803 95.9869 77.3376 96.1022 77.4123 96.2018C78.068 101.6 81.1347 104.197 83.3484 104.751L83.3838 104.759C86.4599 105.469 88.8942 104.102 90.7085 102.312C92.3945 100.649 93.8086 98.3687 95.0132 96.4267L95.1584 96.1926C96.4987 94.0336 97.5375 92.4306 98.553 91.6048C99.0081 91.2347 99.2887 91.1685 99.4452 91.1646C99.5863 91.1611 99.93 91.1994 100.537 91.6877C101.466 92.4353 102.161 93.37 102.507 94.1267C103.696 96.839 105.571 100.224 107.853 102.499C108.993 103.637 110.393 104.656 112.013 105.029C113.754 105.43 115.508 105.027 117.068 103.755C119.213 102.006 120.338 99.2142 120.784 97.2538L120.81 97.1363L120.823 97.0164C121.29 92.5027 122.242 88.5198 123.337 85.2088C123.365 85.1241 123.393 85.0396 123.423 84.9553C126.606 85.6125 129 88.4321 129 91.8106V121.811C129 125.677 125.866 128.811 122 128.811H11C7.13401 128.811 4 125.677 4 121.811V91.8106C4 88.6001 6.1614 85.8944 9.10847 85.0692C9.7129 86.7463 10.2289 88.2758 10.595 89.4201C10.9317 90.4722 12.0574 91.0521 13.1094 90.7154C14.1615 90.3788 14.7414 89.2531 14.4047 88.201C13.7264 86.0812 12.5606 82.7105 11.2565 79.4545ZM72.3242 80.8106H60.5143C61.2493 79.5084 62.0782 78.2089 62.9412 76.8561C63.1998 76.4505 63.4615 76.0402 63.7247 75.6236C64.8463 73.848 65.9857 71.9668 66.8891 69.9341C67.4301 71.2532 68.0372 72.4159 68.6401 73.375L68.684 73.4447L68.7334 73.5106C69.7388 74.8511 71.0476 77.6362 72.3242 80.8106ZM75.0193 76.8888C75.3882 77.7333 75.7474 78.5991 76.09 79.4545C77.3941 82.7106 78.5599 86.0813 79.2382 88.2011C79.2719 88.3062 79.2963 88.412 79.3121 88.5177L81.0339 94.2569C81.1976 94.5206 81.3021 94.8264 81.3276 95.1572C81.67 99.6089 83.9158 100.757 84.3066 100.867C85.5265 101.14 86.6231 100.724 87.8991 99.4647C89.2405 98.1413 90.4385 96.2115 91.7518 94.0961L91.8184 93.9888C93.0171 92.0576 94.4042 89.8229 96.0293 88.5014C96.9076 87.7871 98.0161 87.199 99.3457 87.1659C100.691 87.1324 101.93 87.6745 103.044 88.5713C104.432 89.6877 105.534 91.1176 106.154 92.483L106.166 92.509C107.274 95.0414 108.911 97.9054 110.677 99.6669C111.562 100.55 112.323 100.996 112.911 101.131C113.378 101.239 113.88 101.193 114.54 100.655C115.675 99.7297 116.492 97.9972 116.857 96.478C117.361 91.7038 118.372 87.4815 119.539 83.9533C120.389 81.3816 121.714 79.0043 123.084 76.788C120.003 72.0209 116.876 70.5257 114.451 70.2353C113.725 70.1483 112.828 70.3032 111.703 70.7427C110.582 71.1806 109.386 71.8392 108.086 72.6073C107.745 72.8087 107.393 73.0202 107.034 73.2355C106.079 73.8092 105.077 74.4113 104.113 74.926C102.782 75.6378 101.327 76.2953 99.8538 76.5723C95.9919 77.2982 93.4359 75.55 91.4123 74.0071C91.2403 73.876 91.0724 73.747 90.9077 73.6204L90.9041 73.6176L90.9007 73.615C89.0666 72.2054 87.6321 71.103 85.4868 70.8531C85.22 70.8221 84.9992 70.8107 84.8334 70.8107H84.7621L84.6909 70.8056C82.5222 70.6507 80.5736 71.4772 78.8747 72.7578C77.1917 74.0263 75.8727 75.6558 75.0193 76.8888Z" fill="#D0B49F"/>
</svg>
