<svg width="131" height="130" viewBox="0 0 131 130" fill="none" xmlns="http://www.w3.org/2000/svg">
<path fill-rule="evenodd" clip-rule="evenodd" d="M78.0147 13C78.0147 15.5815 77.2623 17.9872 75.9648 20.0098C77.9658 20.7805 79.9774 21.8033 81.8922 23.1317C87.9471 27.3323 92.8782 34.4868 93.5116 45.889L93.5147 45.9445V55.9635C93.5147 56.3461 93.606 56.5908 93.702 56.7275C94.5387 57.9183 95.6014 58.7737 96.5813 58.943C97.3127 59.0694 98.6694 58.9167 100.506 56.3864C100.605 56.2506 100.681 56.0834 100.724 55.8957C102.223 49.3072 103.816 35.6585 95.4275 24.7168C94.7554 23.8402 94.9213 22.5848 95.7979 21.9128C96.6744 21.2407 97.9299 21.4065 98.6019 22.2831C108.018 34.5646 106.252 49.6295 104.624 56.7831C104.467 57.4737 104.174 58.1429 103.743 58.7361C101.381 61.9909 98.6682 63.363 95.9001 62.8846C94.8547 62.7039 93.9216 62.2747 93.1101 61.7241C93.0967 61.8777 93.0829 62.0314 93.0686 62.1851C92.4595 68.7384 90.9702 75.7259 87.6147 80.2C86.2642 82.0007 83.8984 84.5367 81.1097 86.3317C78.3853 88.0853 74.7246 89.4535 71.1766 87.8159L71.035 87.7506L70.9053 87.6641C70.2528 87.2291 69.3341 86.453 68.6726 85.4549C68.0683 84.5431 67.453 83.0631 68.0659 81.4679C68.1344 80.7243 68.0015 79.8571 67.6004 79.2833C67.2981 78.8507 66.5637 78.1707 64.359 78.4713C63.8696 78.5807 63.0718 78.9269 62.4502 79.5913C61.869 80.2126 61.3587 81.1929 61.5065 82.8189L61.5223 82.9925L61.5078 83.1661C61.3864 84.6232 60.6221 86.6595 58.574 87.798C56.4981 88.952 53.6968 88.8565 50.2131 87.3323L50.178 87.317L50.1436 87.3003C44.9261 84.7757 35.9655 76.4794 35.7533 61.8995C35.6377 61.9369 35.5235 61.9718 35.4111 62.0043C34.3183 62.3202 33.2414 62.4567 32.4292 62.4909C32.2963 62.4965 32.167 62.5076 31.9909 62.5227L31.8512 62.5346C30.0445 62.6866 28.5727 61.9767 27.5005 60.8475C26.4927 59.7861 25.8551 58.3843 25.4364 57.0292C24.601 54.3252 24.4321 51.1193 24.5148 48.9605C24.5265 32.818 31.7526 21.4337 35.6006 17.5857C41.8034 11.3829 48.1 7.67355 54.2016 5.78119C56.5334 2.29532 60.506 0 65.0147 0C69.6145 0 73.6563 2.38894 75.9671 5.99378C84.0427 8.56698 90.5741 13.4435 94.4786 17.6371C95.2312 18.4456 95.186 19.7111 94.3776 20.4637C93.5692 21.2164 92.3037 21.1712 91.551 20.3628C88.5311 17.1193 83.7384 13.41 77.8536 10.9474C77.9597 11.616 78.0147 12.3016 78.0147 13ZM74.0147 13C74.0147 17.9706 69.9853 22 65.0147 22C60.0442 22 56.0147 17.9706 56.0147 13C56.0147 8.02944 60.0442 4 65.0147 4C69.9853 4 74.0147 8.02944 74.0147 13ZM35.9625 57.3557C35.5937 57.6712 35.0225 57.9528 34.3003 58.1616C33.561 58.3753 32.8063 58.4715 32.2609 58.4945C32.0315 58.5041 31.7959 58.5245 31.6156 58.5402L31.5161 58.5487C31.0683 58.5864 30.7465 58.4569 30.4013 58.0933C29.9918 57.6621 29.5885 56.9176 29.2582 55.8485C28.6009 53.7211 28.4368 50.9899 28.5132 49.0799L28.5148 49.04V49C28.5148 33.9634 35.28 23.5631 38.429 20.4142C43.0721 15.7711 47.7059 12.681 52.2054 10.7693C52.0801 11.4941 52.0147 12.2394 52.0147 13C52.0147 15.5307 52.7378 17.8924 53.9887 19.89C49.4901 21.7603 46.0063 24.8407 43.3884 28.3392C39.1912 33.9483 37.1858 40.6529 36.5819 45.3259C36.5222 45.6466 36.4705 45.9727 36.4249 46.297C36.2636 47.4462 36.1577 48.7464 36.0898 50.0456C35.9577 52.5713 35.9638 55.1976 36.0113 56.912C35.9942 57.0604 35.9779 57.2083 35.9625 57.3557ZM39.8983 58.2051C40.0013 57.7876 40.0417 57.3928 40.0554 57.0654L40.51 46.1557C40.5176 46.0898 40.5256 46.0233 40.5339 45.9563C40.6398 45.4109 40.75 45.0254 40.8497 44.7954L40.8887 44.7054L40.9188 44.612C41.5843 42.5414 43.1595 39.5683 45.6228 37.4736C47.96 35.4861 51.0936 34.2706 55.2602 35.3675C58.2587 36.9612 65.5562 38.7901 74.6211 35.9059L74.6902 35.8839L74.7575 35.857C76.4601 35.1759 79.2593 34.8033 81.9618 35.9227C84.541 36.9911 87.3679 39.5594 89.043 45.3786C89.4377 49.2835 89.6674 55.5577 89.0858 61.8149C88.4866 68.2616 87.0591 74.2741 84.4147 77.8C83.2652 79.3326 81.231 81.4966 78.9447 82.9683C76.6622 84.4375 74.6261 84.9187 72.9976 84.2473C72.667 84.0052 72.2616 83.6296 72.0068 83.2451C71.8779 83.0506 71.8327 82.9213 71.8196 82.8624L71.9438 82.614L71.9914 82.3041C72.2036 80.9252 72.1194 78.7664 70.879 76.9917C69.5008 75.0199 67.0793 74.0419 63.7319 74.5201L63.6769 74.528L63.6225 74.5388C62.4397 74.7754 60.8202 75.4786 59.5292 76.8587C58.2119 78.2668 57.3177 80.2991 57.5057 82.968C57.4279 83.4749 57.1449 84.0159 56.6304 84.3019C56.1001 84.5968 54.7437 84.9407 51.852 83.6832C47.4024 81.5108 38.5003 73.3588 39.8983 58.2051ZM45.1069 32.9324C45.5635 32.1838 46.0576 31.4486 46.591 30.7357C49.0809 27.4083 52.4104 24.5774 56.8258 23.0971C59.0611 24.9122 61.9109 26 65.0147 26C68.0462 26 70.8352 24.9624 73.0462 23.223C75.2462 23.9223 77.5045 24.956 79.6122 26.4182C82.1315 28.166 84.4742 30.5508 86.2547 33.782C85.3681 33.1338 84.4417 32.6204 83.4926 32.2273C79.6741 30.6455 75.8114 31.1474 73.3438 32.1146C65.0901 34.7205 58.833 32.807 57.007 31.7635L56.7922 31.6408L56.554 31.5741C51.9589 30.2875 48.1218 31.1243 45.1069 32.9324Z" fill="#D0B49F"/>
<path fill-rule="evenodd" clip-rule="evenodd" d="M116.346 56.1143C112.464 57.3781 106.362 62.6678 106.012 73.8941C103.222 73.7365 100.779 74.3697 98.69 75.578C96.3186 76.9495 94.5093 78.9982 93.1451 81.2329C90.4534 85.6425 89.2967 91.0979 89.0242 94.7966C87.918 103.075 81.262 108.565 78.0867 110.228L78.012 110.267L77.941 110.313C76.2698 111.376 74.924 111.364 74.0415 110.99C73.1473 110.612 72.3434 109.704 72.0637 108.194C71.9887 107.79 71.868 107.219 71.6092 106.649C70.6505 104.538 69.4339 103.009 67.9535 102.133C66.421 101.226 64.8018 101.138 63.3618 101.57C61.9738 101.986 60.8024 102.863 59.9369 103.841C59.0738 104.816 58.4011 106.019 58.1217 107.249C58.1071 107.313 58.0953 107.365 58.0855 107.409L58.0841 107.415C58.0519 107.559 58.0408 107.608 58.0219 107.665C57.345 109.68 56.361 110.51 55.6053 110.868C54.8412 111.229 54.0973 111.208 53.6793 111.108C43.5693 106.699 40.3203 95.827 40.0108 90.8752L40.0087 90.8412L40.0054 90.8073C39.3536 84.0721 36.4564 79.7494 32.9326 77.173C29.7887 74.8744 26.2644 74.0501 23.6699 73.996C23.4703 71.9232 23.2241 70.0902 22.9876 68.6712L22.9745 68.5924L22.9551 68.5149C20.3292 58.0112 12.9186 55 9.01479 55C4.96243 55 2.59501 57.5732 1.37535 60.3112C0.197149 62.9561 -0.0715013 66.0158 0.0148864 68.0461V114C0.0148864 122.837 7.17833 130 16.0149 130H114.015C122.851 130 130.015 122.837 130.015 114V68.0286C130.099 65.4247 129.637 61.5429 127.673 58.7006C126.647 57.2159 125.173 55.9669 123.151 55.4308C121.167 54.9049 118.892 55.1281 116.346 56.1143ZM5.02923 61.9388C4.32179 63.5269 4.03811 65.4547 4.00351 67H4.01489V107.895C10.2775 107.063 13.5228 102.784 15.3239 99.932C15.9137 98.9981 17.149 98.7192 18.0829 99.309C19.0168 99.8988 19.2957 101.134 18.7059 102.068C16.6809 105.274 12.4277 111.038 4.01489 111.923V114C4.01489 120.627 9.38747 126 16.0149 126H114.015C120.642 126 126.015 120.627 126.015 114V112.02C117.401 111.93 112.325 105.56 109.527 98.4031C106.908 91.7026 106.025 83.7855 105.994 77.9013C103.867 77.7419 102.134 78.2068 100.693 79.0407C99.0546 79.9879 97.6826 81.4768 96.5593 83.317C94.2908 87.0332 93.2454 91.842 93.0096 95.1425L93.0055 95.2008L92.9979 95.2587C91.6902 105.284 83.8615 111.689 80.0166 113.733C77.4942 115.312 74.793 115.651 72.4833 114.674C70.1635 113.693 68.6156 111.54 68.1306 108.923C68.0694 108.592 68.0176 108.414 67.9672 108.303C67.2151 106.647 66.4583 105.896 65.9167 105.575C65.4272 105.286 64.9759 105.262 64.5109 105.401C63.994 105.556 63.4261 105.934 62.9321 106.492C62.4357 107.053 62.1286 107.667 62.0222 108.135C62.0181 108.153 62.0131 108.176 62.0073 108.202C61.9721 108.363 61.9065 108.662 61.8137 108.938C60.8414 111.833 59.1907 113.597 57.3156 114.484C55.5074 115.339 53.6794 115.287 52.44 114.916L52.3312 114.883L52.2269 114.838C40.0592 109.624 36.3898 96.8729 36.0209 91.1605C35.4669 85.5156 33.1182 82.2638 30.5718 80.402C28.3285 78.7618 25.8173 78.1194 23.9702 78.0103C24.0398 79.321 24.0831 80.675 24.0898 82.0402C24.115 87.1893 23.6247 91.8021 21.8424 95.8123C21.3938 96.8216 20.2119 97.2762 19.2025 96.8276C18.1932 96.379 17.7386 95.1971 18.1872 94.1877C19.6049 90.9979 20.1146 87.1107 20.0898 82.0598C20.0657 77.1249 19.5365 72.3249 19.0552 69.4084C16.8664 60.7783 11.1048 59 9.01479 59C7.06715 59 5.85124 60.0935 5.02923 61.9388ZM126.018 67C125.959 64.943 125.479 62.5624 124.382 60.9744C123.787 60.1133 123.055 59.5436 122.126 59.2973C121.174 59.0451 119.773 59.0684 117.744 59.8625L117.681 59.887L117.617 59.9072C115.402 60.6066 109.64 64.7249 110.014 75.9334L110.016 75.9952L110.014 76.0571C109.852 81.7322 110.592 90.1405 113.252 96.9469C115.8 103.464 119.815 107.919 126.015 108.018V67H126.018Z" fill="#D0B49F"/>
</svg>
