<svg width="132" height="132" viewBox="0 0 132 132" fill="none" xmlns="http://www.w3.org/2000/svg">
<path fill-rule="evenodd" clip-rule="evenodd" d="M92 59.4914C79.8069 55.4985 71 44.0277 71 30.5C71 13.6553 84.6553 0 101.5 0C108.075 0 114.165 2.08074 119.146 5.61969C120.102 6.29935 120.177 7.66439 119.363 8.50897C118.64 9.25805 117.47 9.32526 116.616 8.73091C112.328 5.74845 107.118 4 101.5 4C86.8645 4 75 15.8645 75 30.5C75 45.1355 86.8645 57 101.5 57C116.136 57 128 45.1355 128 30.5C128 24.9372 126.286 19.7748 123.357 15.5119C122.786 14.68 122.835 13.5519 123.535 12.8254C124.374 11.9558 125.789 12.0107 126.483 12.9997C129.959 17.9535 132 23.9884 132 30.5C132 44.0277 123.193 55.4985 111 59.4914V80.0608C113.111 80.3538 114.704 81.6703 114.704 83.25L117 115.75L117 115.825C117 115.979 117 116.131 116.998 116.279C117 116.353 117 116.426 117 116.5C117 125.06 110.06 132 101.5 132C92.9396 132 86 125.06 86 116.5C86 116.426 86.0005 116.352 86.0016 116.278C85.9999 116.13 86 115.979 86 115.825L86 115.75L88.2963 83.25C88.2963 81.6703 89.889 80.3538 92 80.0608V59.4914ZM107 61V79H96V61H107ZM112.933 115H112.903C112.935 115.248 112.96 115.498 112.976 115.75C112.979 115.796 112.982 115.842 112.984 115.888C112.986 115.931 112.988 115.974 112.99 116.017L112.992 116.073C112.997 116.215 113 116.357 113 116.5C113 117.359 112.906 118.195 112.727 119C111.586 124.149 106.993 128 101.5 128C96.0073 128 91.414 124.149 90.2725 119L90.2707 118.992C90.0935 118.19 90 117.356 90 116.5C90 116.374 90.0021 116.249 90.0061 116.123C90.0076 116.075 90.0095 116.027 90.0116 115.979C90.0136 115.935 90.0158 115.891 90.0182 115.847C90.0201 115.815 90.022 115.782 90.0241 115.75C90.0403 115.498 90.0647 115.248 90.0969 115H90.0667L92.8889 83.25H110.111L112.933 115Z" fill="#D0B49F"/>
<path d="M99.8289 22.4728C101.495 22.1951 103.914 22.3692 105.795 23.6168C107.527 24.7656 109.181 27.0762 109.001 31.926C108.961 33.0298 109.822 33.9578 110.926 33.9986C112.03 34.0395 112.958 33.1779 112.999 32.074C113.219 26.1238 111.123 22.3511 108.006 20.2833C105.037 18.3142 101.505 18.1383 99.1713 18.5272C98.0817 18.7088 97.3457 19.7393 97.5273 20.8288C97.7089 21.9184 98.7393 22.6544 99.8289 22.4728Z" fill="#D0B49F"/>
<path fill-rule="evenodd" clip-rule="evenodd" d="M122 30C122 41.0457 113.046 50 102 50C90.9543 50 82 41.0457 82 30C82 18.9543 90.9543 10 102 10C113.046 10 122 18.9543 122 30ZM118 30C118 38.8366 110.837 46 102 46C93.1634 46 86 38.8366 86 30C86 21.1634 93.1634 14 102 14C110.837 14 118 21.1634 118 30Z" fill="#D0B49F"/>
<path fill-rule="evenodd" clip-rule="evenodd" d="M37.8048 6.50002C32.3426 5.68403 27.2531 9.45056 26.4371 14.9128L25.5604 20.7815L15.9998 18.9406C15.9679 14.5497 12.3985 11 8 11C3.58172 11 0 14.5817 0 19C0 23.4183 3.58172 27 8 27C11.0384 27 13.6813 25.3061 15.0356 22.8111L24.9714 24.7243L24.4999 27.8808C23.7801 32.6988 26.6257 37.2269 31.0556 38.7879L25.513 65.5949C24.0054 66.4066 22.9588 67.9706 22.8843 69.7961L22.0643 89.8851C22.0172 91.0389 22.9399 92 24.0946 92V92C25.1902 92 26.0885 91.1323 26.1259 90.0373C26.2997 84.9523 26.5238 78.7084 26.8809 69.9592C26.9028 69.4232 27.3437 69 27.8801 69H42.0898L43.9006 69.0319C44.3138 69.139 44.6252 69.5039 44.6479 69.9491L45.5 86.5C45.4684 86.469 45.52 87.513 45.7512 92.1913L45.7512 92.1927L45.7514 92.1952C45.9555 96.3278 46.2997 103.295 46.8503 114.857C46.8554 114.964 46.8549 115.069 46.849 115.173C46.9483 115.767 47 116.378 47 117C47 123.075 42.0751 128 36 128C29.9249 128 25 123.075 25 117C25 116.366 25.0536 115.745 25.1566 115.14C25.1523 115.045 25.1524 114.948 25.1573 114.85C25.4742 108.504 25.6499 103.994 25.8184 99.1343C25.8589 97.9675 24.9235 97 23.7559 97V97C22.6484 97 21.7382 97.8738 21.6931 98.9804L21.0017 115.918L21.0383 115.92C21.0129 116.277 21 116.637 21 117C21 125.284 27.7157 132 36 132C44.2843 132 51 125.284 51 117C51 116.63 50.9866 116.263 50.9603 115.9L50.9974 115.898L48.6427 69.7452C48.6056 69.0184 48.4146 68.3344 48.1023 67.724L52.9883 43.3699C56.84 42.4495 59.936 39.2747 60.557 35.1179L63.4942 20.1499C64.3102 14.6876 60.5437 9.59813 55.0814 8.78214L37.8048 6.50002ZM54.4905 12.7382L37.2139 10.4561C33.9365 9.96653 30.8828 12.2264 30.3932 15.5038L28.456 28.4718C27.9664 31.7491 30.2263 34.8028 33.5036 35.2924L49.7802 39.5745C53.0576 40.0641 56.1113 37.8042 56.6009 34.5269L59.5381 19.5589C60.0277 16.2815 57.7678 13.2278 54.4905 12.7382ZM43.6492 65C43.837 65 44.0225 65.0104 44.2051 65.0306L48.7739 44.0413L34.6633 41.2104L29.1717 65H43.6492ZM8 23C10.2091 23 12 21.2091 12 19C12 16.7909 10.2091 15 8 15C5.79086 15 4 16.7909 4 19C4 21.2091 5.79086 23 8 23Z" fill="#D0B49F"/>
</svg>
